<?xml version="1.0" encoding="UTF-8" standalone="no"?>
<svg
   version="1.1"
   width="1024"
   height="1024"
   id="svg78"
   sodipodi:docname="logo.svg"
   inkscape:version="1.4 (e7c3feb1, 2024-10-09)"
   xmlns:inkscape="http://www.inkscape.org/namespaces/inkscape"
   xmlns:sodipodi="http://sodipodi.sourceforge.net/DTD/sodipodi-0.dtd"
   xmlns="http://www.w3.org/2000/svg"
   xmlns:svg="http://www.w3.org/2000/svg">
  <defs
     id="defs78" />
  <sodipodi:namedview
     id="namedview78"
     pagecolor="#ffffff"
     bordercolor="#000000"
     borderopacity="0.25"
     inkscape:showpageshadow="2"
     inkscape:pageopacity="0.0"
     inkscape:pagecheckerboard="0"
     inkscape:deskcolor="#d1d1d1"
     inkscape:zoom="0.46320317"
     inkscape:cx="466.31805"
     inkscape:cy="592.61252"
     inkscape:window-width="1512"
     inkscape:window-height="842"
     inkscape:window-x="0"
     inkscape:window-y="34"
     inkscape:window-maximized="1"
     inkscape:current-layer="svg78" />
  <path
     d="m 512.5945,41.325056 c 1.63304,-0.0013 3.26608,-0.0028 4.9486,-0.0042 63.11857,0.08489 126.42641,9.878362 184.43281,35.56154 1.65207,0.718091 3.30414,1.436183 5.00628,2.176034 75.06335,32.69196 145.09929,82.92893 192.87796,150.35974 1.35314,1.88375 1.35314,1.88375 2.73364,3.80554 74.157,103.58316 103.18221,224.62953 83.84072,350.73706 -2.78626,16.52801 -5.88274,33.00764 -10.51582,49.12483 -4.5415,16.0137 -0.54393,30.72672 2.97921,46.54821 1.58394,8.65509 2.58855,15.98043 -0.17714,24.43761 -5.65788,7.78399 -16.9891,9.03895 -26.03189,10.58829 -3.85742,0.49507 -7.72974,0.8718 -11.60283,1.22389 -0.49954,1.6926 -0.99909,3.3852 -1.51376,5.12908 -14.79727,41.05784 -45.0092,77.0785 -74.75412,108.24211 -2.8904,3.29515 -5.76862,6.60104 -8.63168,9.91998 -7.53486,8.4919 -15.66263,15.77535 -24.34904,23.06072 -1.92642,1.69526 -3.85284,3.3905 -5.83764,5.13713 -45.48406,39.82095 -99.54322,70.89431 -157.00461,89.68241 -1.41259,0.48293 -2.82519,0.96587 -4.28059,1.46344 -10.92798,3.72085 -21.91126,6.9599 -33.08036,9.87368 -1.69109,0.44175 -3.3822,0.8835 -5.12455,1.33862 -29.19586,7.50776 -57.73697,12.33362 -87.92356,12.47849 -1.96789,0.0121 -3.93579,0.0235 -5.96333,0.0356 -4.15046,0.0194 -8.30095,0.0329 -12.45143,0.0408 -6.18716,0.0198 -12.37286,0.0837 -18.5597,0.14897 -36.91473,0.20638 -73.23107,-2.7551 -108.57223,-14.04257 -2.01677,-0.60849 -4.03353,-1.21697 -6.11142,-1.8439 -8.61703,-2.63265 -17.10644,-5.42009 -25.50045,-8.69608 -6.43858,-2.47688 -12.8484,-4.12185 -19.62256,-5.49293 -55.34333,-11.21987 -108.45054,-41.14302 -151.03007,-77.75599 -1.96627,-1.68993 -3.93256,-3.37987 -5.95842,-5.12102 C 145.6732,835.1134 120.76451,793.27925 102.39696,744.87054 99.38548,737.12306 95.667429,729.99073 91.668765,722.72471 73.919297,690.40247 61.414301,656.29994 53.804562,620.21658 c -0.746849,-3.50736 -1.53288,-7.00666 -2.361235,-10.49568 -7.586763,-32.419 -7.892711,-64.90673 -8.050923,-98.03428 -0.02157,-2.16626 -0.04301,-4.33253 -0.06526,-6.56445 -0.398065,-51.39319 7.011044,-103.92921 25.831417,-152.02637 1.139021,-3.05936 2.276991,-6.1191 3.414017,-9.1792 20.643776,-54.26478 51.717302,-104.0829 91.091492,-146.77864 4.36893,-4.74953 8.58879,-9.60521 12.81062,-14.48542 7.63142,-8.57414 15.82855,-15.94834 24.6067,-23.31839 1.85468,-1.64743 3.70937,-3.29485 5.62025,-4.9922 83.9731,-74.077047 194.55772,-112.931194 305.89284,-113.0169 z"
     fill="#42b5df"
     id="path2"
     style="stroke-width:2.0613" />
  <path
     d="m 399.14281,354.72229 c 8.60926,0.46397 15.78063,2.37256 23.78539,5.33038 2.24645,0.81856 2.24645,0.81856 4.53827,1.65367 43.47861,16.34003 85.09724,38.74051 119.91237,69.71864 1.74574,1.52254 3.49148,3.04508 5.29012,4.61376 17.8,15.73466 34.20597,31.86669 48.30353,51.04119 6.87463,-2.29154 8.45881,-4.11163 13.01192,-9.53349 1.27011,-1.49065 2.54023,-2.98131 3.84883,-4.51713 2.29728,-2.75575 4.58612,-5.5186 6.86024,-8.29349 7.8024,-9.40125 16.37153,-17.25292 25.75008,-25.06566 1.67665,-1.42156 3.3533,-2.84314 5.08075,-4.30778 10.67541,-8.91969 21.62474,-17.34706 32.92435,-25.45215 1.21864,-0.87637 2.43727,-1.75272 3.69282,-2.65562 15.86476,-11.24077 15.86476,-11.24077 22.71751,-10.09864 1.19041,0.42514 2.3808,0.85028 3.60727,1.28831 -0.68023,3.40113 -1.36045,6.80227 -2.0613,10.30646 1.11701,-0.6113 2.234,-1.2226 3.38484,-1.85244 19.81617,-10.78018 39.5917,-21.27421 60.64411,-29.45346 1.53019,-0.59935 3.06037,-1.19869 4.63691,-1.81621 7.15041,-2.68161 12.23545,-3.98118 19.9698,-3.98118 0.21622,2.63056 0.21622,2.63056 0.43682,5.31428 3.04207,36.77879 6.31315,73.5267 9.99848,110.24703 0.16865,1.68578 0.33729,3.37157 0.51104,5.10844 2.20762,22.02323 2.20762,22.02323 4.64018,44.02242 0.19006,1.65231 0.38012,3.30463 0.57594,5.00702 0.36042,3.10887 0.72779,6.21694 1.10392,9.32394 1.60914,13.86761 1.68918,27.57772 1.28526,41.53535 -1.90251,0.90343 -3.80502,1.80686 -5.76518,2.73766 -45.90536,22.16328 -88.25264,50.21493 -128.21893,81.77541 0.68023,2.04067 1.36044,4.08136 2.06128,6.18388 -1.36045,2.04068 -2.72091,4.08136 -4.12258,6.18388 1.36045,0.68023 2.72091,1.36046 4.12258,2.06129 3.10487,-2.35554 3.10487,-2.35554 6.27246,-4.75868 44.25754,-33.46821 90.37092,-63.14529 140.07944,-87.99955 -0.84701,-10.60806 -1.70728,-21.21498 -2.57662,-31.82123 -0.13308,-1.62489 -0.26625,-3.24977 -0.40342,-4.92388 -2.60053,-31.56582 -5.6302,-63.08316 -8.83013,-94.59345 -0.17431,-1.73803 -0.34861,-3.47606 -0.52819,-5.26675 -0.32524,-3.24168 -0.65539,-6.48285 -0.99158,-9.72341 -0.82844,-8.28949 -1.26055,-16.42857 -1.09913,-24.7587 3.16589,-1.4015 6.34685,-2.76897 9.53349,-4.12259 1.76965,-0.76526 3.53931,-1.53051 5.36258,-2.31895 6.32213,-1.99459 11.49504,-1.93112 18.08465,-1.80364 0.13662,1.24345 0.27326,2.4869 0.41404,3.76802 1.46323,13.30908 2.93121,26.61764 4.40239,39.92584 0.56701,5.13015 1.13342,10.26036 1.69921,15.39063 4.06689,36.93226 4.06689,36.93226 8.50926,73.82067 0.19547,1.56029 0.39093,3.12058 0.59232,4.72816 0.87274,6.93693 1.76617,13.8697 2.69084,20.79998 2.04568,15.98816 2.696,31.5815 2.30488,47.69612 -2.76359,1.11699 -2.76359,1.11699 -5.58301,2.25656 -102.96863,32.40265 -102.96863,32.40265 -182.49399,89.81726 -0.51548,1.58631 -1.03097,3.17263 -1.56207,4.80701 -1.36046,0 -2.72092,0 -4.12259,0 0,1.36045 0,2.72091 0,4.12259 11.79088,-4.21698 22.78432,-9.2907 33.7537,-15.33088 51.70531,-28.29159 107.34556,-51.73277 162.32691,-72.78946 2.30109,-0.88216 4.60216,-1.76433 6.97297,-2.67323 1.69526,-0.64834 3.39051,-1.29668 5.13713,-1.96467 0.4056,-11.35679 -0.32627,-22.08866 -1.81974,-33.35915 -1.59553,-12.31695 -3.05083,-24.64032 -4.36414,-36.99057 -0.16975,-1.59194 -0.33949,-3.18388 -0.51438,-4.82405 -0.69139,-6.5064 -1.37777,-13.01333 -2.06223,-19.52045 -0.5118,-4.85453 -1.02744,-9.70862 -1.54597,-14.56243 -0.16726,-1.56738 -0.33452,-3.13478 -0.50684,-4.74967 -1.37717,-12.66854 -3.06585,-25.27864 -4.89501,-37.88933 -1.20641,-10.52705 -1.13658,-20.98234 -0.78204,-31.55953 5.44181,-0.68023 10.88364,-1.36046 16.49035,-2.0613 3.11201,10.21329 5.31543,20.31288 6.94077,30.8711 0.24651,1.55735 0.49303,3.11471 0.74701,4.71925 0.79666,5.05488 1.57936,10.1118 2.36103,15.16902 0.54935,3.50999 1.0989,7.01997 1.64864,10.52991 3.73977,24.01361 7.21666,48.05447 10.37189,72.15235 1.56612,11.82954 3.41225,23.49523 5.85073,35.17686 3.12896,15.11096 5.77967,30.29704 5.06065,45.75611 -13.21946,5.55105 -26.36499,10.16003 -40.19524,13.91373 -23.33995,6.51537 -46.48452,13.59462 -69.618,20.80518 -6.77447,2.1031 -13.55469,4.18572 -20.33776,6.26079 -32.68046,10.01077 -65.11373,20.50413 -97.23553,32.19623 -1.45114,0.52654 -2.9023,1.05307 -4.39741,1.59555 -13.06209,4.75502 -25.87778,9.51588 -38.24561,15.92546 0,2.7209 0,5.44182 0,8.24518 -4.63791,3.09194 -4.63791,3.09194 -10.30647,6.18387 -1.1904,1.36046 -2.38079,2.72092 -3.60726,4.12259 -13.82325,12.28734 -32.51074,11.4264 -50.01055,10.91038 -10.92351,-0.80241 -19.44304,-2.41432 -28.07707,-9.58181 -3.21429,-3.86632 -3.8202,-6.78722 -4.87947,-11.63503 -2.22635,-0.55269 -4.4527,-1.10537 -6.74652,-1.6748 -28.45858,-7.20441 -56.30025,-16.04352 -84.20809,-25.12203 -8.89274,-2.88333 -17.78745,-5.76043 -26.6841,-8.63167 -2.13407,-0.68875 -4.26814,-1.37751 -6.46686,-2.08715 -17.63722,-5.66714 -35.36067,-10.96688 -53.16574,-16.07801 -4.16878,-1.21659 -8.33705,-2.43493 -12.50464,-3.65557 -3.77633,-1.10054 -7.55268,-2.20097 -11.32907,-3.3013 -2.04848,-0.59852 -4.09697,-1.19704 -6.20754,-1.81369 -11.02087,-3.2182 -22.04784,-6.4129 -33.08589,-9.57174 -2.22252,-0.63937 -4.44505,-1.27873 -6.73493,-1.93748 -4.24286,-1.2201 -8.48781,-2.43301 -12.73513,-3.63746 -10.64331,-3.06919 -20.70902,-6.49012 -30.77397,-11.12475 -0.67914,-15.79739 1.86428,-30.96557 4.38024,-46.52405 0.22957,-1.4249 0.45914,-2.84979 0.69568,-4.31784 1.21753,-7.52854 2.45483,-15.05356 3.70571,-22.57662 1.02613,-6.1958 2.01128,-12.39604 2.96109,-18.60398 1.15393,-7.54138 2.37663,-15.06855 3.64891,-22.59082 0.47072,-2.85103 0.91781,-5.70606 1.33989,-8.56469 3.73164,-25.04389 3.73164,-25.04389 14.59854,-33.26195 4.45825,-2.67217 4.45825,-2.67217 7.83452,-4.341 -1.34064,15.16905 -3.37759,30.16013 -5.72492,45.20353 -0.35333,2.29131 -0.70666,4.58261 -1.07069,6.94335 -0.74418,4.81961 -1.49095,9.63884 -2.24016,14.45769 -1.13622,7.30797 -2.26502,14.61706 -3.39239,21.9264 -0.72827,4.71045 -1.45694,9.42083 -2.18609,14.13114 -0.33297,2.15226 -0.66593,4.30452 -1.00897,6.52201 -2.2506,14.46771 -4.61641,28.91379 -7.05101,43.35164 1.33001,0.24737 2.66003,0.49473 4.03036,0.74959 13.91525,2.61817 27.45008,6.1919 41.06044,10.07222 2.24662,0.63622 4.49323,1.27244 6.80791,1.92792 6.75286,1.92032 13.50081,3.85688 20.24658,5.80193 1.92444,0.55434 3.84887,1.10869 5.83162,1.67983 19.44513,5.63415 38.71308,11.58421 57.72227,18.56322 8.20245,2.99403 16.45568,5.65746 24.81605,8.18027 17.5175,5.33969 34.78128,11.36941 52.05573,17.44047 1.67572,0.58729 3.35144,1.17458 5.07794,1.77966 24.71695,8.6802 49.11538,17.81229 72.99358,28.62443 -84.73045,-48.06214 -171.2763,-89.8119 -261.78437,-125.73894 -0.13932,-9.40111 0.28468,-18.39623 1.51376,-27.71475 0.32999,-2.53308 0.65997,-5.06616 0.99996,-7.676 0.36087,-2.69086 0.72174,-5.3817 1.09354,-8.15409 0.37176,-2.81325 0.74298,-5.62655 1.11369,-8.43993 0.96632,-7.30876 1.94619,-14.61561 2.93002,-21.92201 0.5905,-4.39484 1.17633,-8.79028 1.76074,-13.18593 1.10276,-8.28867 2.22074,-16.57521 3.34255,-24.86134 0.34344,-2.56579 0.68687,-5.13159 1.04072,-7.77514 0.3235,-2.35787 0.64701,-4.71575 0.98031,-7.14508 0.28216,-2.07606 0.56431,-4.15211 0.85503,-6.29108 0.86004,-4.94137 0.86004,-4.94137 2.92134,-9.06395 0.57441,-3.5657 1.05278,-7.14711 1.48155,-10.73322 0.39284,-3.2653 0.39284,-3.2653 0.79362,-6.59655 0.26953,-2.31636 0.53906,-4.63272 0.81676,-7.01927 0.41825,-3.51042 0.41825,-3.51042 0.84495,-7.09174 1.63086,-13.93776 3.02597,-27.81083 3.67218,-41.8318 0.78985,-6.27879 2.21595,-12.82034 6.81999,-17.42437 10.52529,0.59577 19.48205,2.87993 29.46201,6.28856 2.20858,0.75014 4.41716,1.50029 6.69267,2.27316 1.67349,0.57577 3.34699,1.15153 5.07121,1.74475 0.11407,-1.61271 0.22818,-3.22542 0.34572,-4.88701 0.51915,-7.26107 1.05275,-14.521 1.58674,-21.78098 0.17935,-2.53889 0.35872,-5.0778 0.5435,-7.69362 0.17936,-2.41135 0.35871,-4.8227 0.54351,-7.30712 0.16192,-2.23449 0.32384,-4.46899 0.49066,-6.77118 0.89918,-7.56647 1.23916,-7.11697 9.03478,-7.64984 z"
     fill="#106272"
     id="path3"
     style="stroke-width:2.0613" />
  <path
     d="m 805.8136,356.96074 c 1.80154,0.0372 3.60308,0.0744 5.45921,0.11272 2.01676,0.0717 2.01676,0.0717 4.07428,0.14493 5.90075,18.48905 6.50894,36.33249 6.18389,55.65494 1.71916,-0.74399 3.43832,-1.48799 5.20959,-2.25454 14.09292,-5.81151 24.89219,-9.34402 40.13887,-8.05192 4.29547,10.88184 5.31629,21.42794 6.18389,32.9807 1.65805,-0.68023 3.3161,-1.36045 5.0244,-2.06129 8.86469,-2.48834 16.76278,-2.42658 25.895,-2.0613 3.60304,10.80912 4.52233,19.5271 4.12259,30.91942 6.12206,-0.68023 12.2441,-1.36046 18.55165,-2.0613 2.9841,7.03607 5.1356,13.84148 6.79583,21.29736 0.48111,2.13052 0.96222,4.26105 1.45791,6.45614 0.50735,2.27767 1.0147,4.55532 1.53741,6.90201 4.13675,18.26222 8.42355,36.47018 13.01193,54.6243 8.24339,32.74493 16.0989,65.50995 23.06072,98.55563 0.53276,2.49289 1.06551,4.98578 1.61441,7.55422 7.95401,38.34095 7.95401,38.34095 4.55941,48.27333 -8.22545,11.83336 -33.82536,12.94975 -46.87481,15.80092 -7.13656,1.56011 -14.26574,3.15326 -21.39549,4.74409 -1.43295,0.31904 -2.86589,0.63808 -4.34226,0.96679 -12.75891,2.85016 -25.46967,5.88475 -38.17194,8.97734 -19.45912,4.71944 -38.95803,9.24612 -58.48923,13.65607 -2.04902,0.46272 -2.04902,0.46272 -4.13944,0.93478 -17.94481,4.04495 -35.91368,7.93824 -53.93409,11.63077 -7.978,1.65507 -15.79259,3.54899 -23.60525,5.85727 -12.06249,3.50079 -24.40814,5.16623 -36.82549,6.90101 -14.00396,2.02379 -22.1825,3.78264 -31.18917,15.33038 -12.4736,13.70476 -30.60626,21.95047 -48.94767,22.85137 -3.87014,0.0352 -7.7407,0.0373 -11.61089,0.008 -1.9158,0.0411 -3.83159,0.0824 -5.80544,0.12485 -17.35044,-0.0121 -33.83337,-4.13877 -46.75757,-16.3575 -1.24884,-1.14522 -2.4977,-2.29045 -3.7844,-3.47038 -3.68778,-3.87297 -3.68778,-3.87297 -7.33631,-9.04432 -5.32082,-5.94413 -8.18554,-6.99682 -15.86936,-8.71824 -2.28596,-0.53225 -4.57193,-1.06451 -6.92716,-1.6129 -2.49689,-0.53856 -4.99377,-1.07714 -7.56631,-1.63202 -2.63903,-0.60367 -5.27808,-1.20735 -7.99707,-1.8293 -8.65975,-1.97804 -17.33602,-3.87691 -26.01428,-5.77173 -2.91662,-0.64082 -5.8331,-1.28228 -8.74943,-1.92441 -1.44909,-0.31904 -2.89817,-0.63809 -4.39117,-0.9668 -5.98559,-1.31841 -11.97111,-2.63706 -17.9564,-3.95682 -3.07133,-0.67639 -6.14302,-1.35114 -9.21505,-2.02432 -34.44343,-7.55512 -68.6053,-16.16222 -102.78538,-24.81853 -12.74028,-3.22087 -25.5047,-6.32831 -38.29647,-9.33864 -12.51159,-2.94742 -25.01279,-5.92694 -37.48978,-9.01815 -2.6226,-0.64834 -5.24519,-1.29668 -7.94726,-1.96468 -6.09531,-1.6426 -6.09531,-1.6426 -10.2179,-3.70388 -0.83258,-16.41329 1.64313,-31.28418 5.15324,-47.28094 0.54288,-2.53623 1.08577,-5.07248 1.64511,-7.68557 1.49802,-6.97039 3.02986,-13.93296 4.5701,-20.89413 1.04273,-4.72664 2.07426,-9.4556 3.1039,-14.18511 1.79488,-8.23242 3.61402,-16.45915 5.45115,-24.68224 0.71355,-3.20127 1.42185,-6.40372 2.1247,-9.60735 0.9927,-4.50895 2.00978,-9.01174 3.03356,-13.51372 0.57977,-2.58805 1.15952,-5.17609 1.75684,-7.84258 3.39811,-11.51616 8.29233,-17.93331 17.86572,-25.00929 1.66603,-1.2462 3.33205,-2.4924 5.04856,-3.77636 1.26745,-0.92203 2.53491,-1.84405 3.84078,-2.79402 2.9387,8.05925 1.36097,14.79593 -0.0805,23.10905 -0.24982,1.46971 -0.49962,2.9394 -0.757,4.45365 -0.82191,4.81486 -1.66698,9.62534 -2.51209,14.43617 -0.57104,3.32181 -1.14037,6.6439 -1.70801,9.96628 -1.16402,6.80381 -2.33598,13.60616 -3.51366,20.40762 -2.39071,13.84078 -4.68858,27.69685 -6.98443,41.55361 -1.07493,6.48264 -2.15649,12.96417 -3.23749,19.4458 -0.52961,3.1776 -0.52961,3.1776 -1.06991,6.4194 -0.24744,1.48467 -0.49489,2.96935 -0.74983,4.49902 11.52977,3.49158 23.07487,6.90945 34.66909,10.18065 54.19668,15.29504 108.03015,31.92763 161.76383,48.76782 8.38344,2.62674 16.76856,5.24818 25.15363,7.86978 6.20687,1.94349 12.411,3.8956 18.61511,5.84791 3.89013,1.21708 7.78039,2.43378 11.67078,3.65004 1.76309,0.55761 3.52619,1.11522 5.3427,1.68974 9.85232,3.06928 19.5501,5.54425 29.7277,7.29098 3.69965,1.27743 3.69965,1.27743 7.30691,7.33249 1.27541,3.12479 1.27541,3.12479 2.57661,6.3127 15.22305,11.31972 35.45343,9.82882 53.59366,8.24518 14.03104,-2.97774 23.66085,-7.72858 32.9807,-18.55164 1.36046,0 2.7209,0 4.12259,0 -0.68023,-3.40114 -1.36046,-6.80227 -2.0613,-10.30648 43.39893,-18.43892 88.67046,-32.42442 133.4688,-47.02327 2.57897,-0.84225 2.57897,-0.84225 5.21005,-1.70154 21.6596,-7.06432 43.39024,-13.77391 65.27014,-20.12126 7.07452,-2.06466 14.13293,-4.18263 21.19104,-6.3026 1.34611,-0.40405 2.69222,-0.80811 4.07912,-1.22442 4.02727,-1.2095 8.0542,-2.42016 12.08111,-3.63088 2.81949,-0.8469 5.639,-1.69368 8.45855,-2.54039 6.75722,-2.02938 13.51409,-4.05997 20.27073,-6.09128 0.0562,-8.98808 -0.20048,-17.4116 -1.6748,-26.2815 -0.37997,-2.3436 -0.75994,-4.6872 -1.15143,-7.1018 -0.42779,-2.58807 -0.85559,-5.17612 -1.29635,-7.84258 -0.9549,-5.92464 -1.89557,-11.85147 -2.83428,-17.77868 -0.26173,-1.64576 -0.52346,-3.29152 -0.79311,-4.98716 -1.84925,-11.70211 -3.59526,-23.41692 -5.30522,-35.14013 -5.51508,-37.79874 -11.67555,-75.4882 -17.86422,-113.18145 -5.44182,0 -10.88363,0 -16.49035,0 1.81767,22.32772 3.8568,44.56227 7.0857,66.7344 3.2841,22.6084 5.35405,45.29783 7.33883,68.04987 0.1231,1.3879 0.24622,2.77581 0.37307,4.20576 0.33581,3.79842 0.66279,7.59763 0.98922,11.39687 0.56884,5.07081 1.44803,9.61265 2.76483,14.51663 0.13498,3.26121 0.17682,6.52751 0.1289,9.79115 -0.0186,1.64742 -0.0372,3.29485 -0.0564,4.9922 -0.0359,1.86531 -0.0359,1.86531 -0.0724,3.7683 -1.59428,0.64834 -3.18856,1.29668 -4.83116,1.96467 -14.03006,5.70639 -14.03006,5.70639 -27.63423,12.33555 -7.34781,3.79242 -14.88656,6.50395 -22.67422,9.27583 -23.99093,8.67353 -46.89278,20.00513 -69.93103,30.90331 -6.05398,2.85981 -12.11808,5.69595 -18.18931,8.51894 -16.64387,7.7678 -33.05846,15.74726 -49.0267,24.84273 -6.78757,3.77475 -9.94392,4.91721 -17.96536,4.91721 -0.68023,-2.04069 -1.36046,-4.08136 -2.06129,-6.18389 2.04067,-0.68022 4.08136,-1.36045 6.18388,-2.06129 0.86439,-1.58066 1.7288,-3.16133 2.6194,-4.7899 4.53842,-7.02389 10.02566,-9.79508 17.30913,-13.39135 1.36609,-0.70168 2.7322,-1.40338 4.1397,-2.12632 4.45929,-2.27906 8.93874,-4.51455 13.42156,-6.74692 3.11613,-1.57359 6.23172,-3.14825 9.34678,-4.72397 36.23443,-18.25068 72.94866,-34.91487 110.59478,-50.02915 1.37994,-0.55462 2.75989,-1.10924 4.18165,-1.68066 23.14687,-9.26997 23.14687,-9.26997 28.02607,-9.26997 -2.79236,-32.43377 -5.80397,-64.76113 -10.30648,-97.00966 -3.04498,-21.86761 -5.60692,-43.73096 -7.72984,-65.70375 -0.39459,-4.03179 -0.39459,-4.03179 -0.79714,-8.14503 -1.11051,-11.82163 -1.90305,-23.38726 -1.77948,-35.27098 -2.79262,0.59524 -5.58363,1.19804 -8.37401,1.80364 -2.33164,0.50219 -2.33164,0.50219 -4.71039,1.01454 -6.69683,1.59776 -13.28709,3.50166 -19.89632,5.427 0.15495,1.34053 0.3099,2.68105 0.46953,4.06219 3.29628,28.68241 6.35823,57.37578 9.06396,86.11943 0.25327,2.66644 0.50652,5.33288 0.76745,8.08011 1.46211,15.74353 2.62834,31.48384 3.63193,47.26282 0.60593,8.56161 1.51143,17.04491 2.55749,25.56287 -1.92759,1.08809 -1.92759,1.08809 -3.89412,2.19818 -10.39447,5.86856 -20.78552,11.74303 -31.17204,17.62566 -6.90245,3.90714 -13.81145,7.7986 -20.75787,11.627 -26.74113,14.88039 -51.38866,32.62148 -75.63079,51.24047 -1.29169,0.98646 -2.58339,1.97292 -3.91423,2.98927 -1.12862,0.87038 -2.25724,1.74077 -3.42006,2.63752 -3.73984,2.58604 -7.57979,4.55884 -11.68536,6.50143 -1.36046,-1.36045 -2.72091,-2.72091 -4.12259,-4.12259 2.04067,-3.40114 4.08136,-6.80226 6.18388,-10.30647 -1.36046,-0.68023 -2.72092,-1.36046 -4.12259,-2.06129 33.26434,-27.39416 69.21948,-50.71953 106.82898,-71.6954 3.18464,-1.78475 6.35288,-3.59893 9.50934,-5.43304 1.6461,-0.94627 3.29219,-1.89254 4.98817,-2.8675 1.48733,-0.86473 2.97466,-1.72946 4.50707,-2.62039 4.02798,-1.89674 4.02798,-1.89674 10.21185,-1.89674 -0.85366,-9.27631 -1.71347,-18.55203 -2.57661,-27.82747 -0.20175,-2.17003 -0.20175,-2.17003 -0.40757,-4.3839 -1.69657,-18.20884 -3.45088,-36.41066 -5.30125,-54.60454 -0.17717,-1.74212 -0.35436,-3.48423 -0.5369,-5.27914 -0.26632,-2.61782 -0.26632,-2.61782 -0.53803,-5.28851 -2.77258,-27.256 -5.51599,-54.50491 -7.64532,-81.82021 -0.24735,-3.12429 -0.24735,-3.12429 -0.49971,-6.31171 -0.86912,-11.71637 -1.19085,-23.29456 -1.04624,-35.043 -31.64289,10.20204 -61.03775,24.26218 -90.69695,39.16459 0.42514,-1.95565 0.85028,-3.9113 1.2883,-5.92622 0.38263,-3.18856 0.38263,-3.18856 0.77298,-6.44154 -2.04067,-2.04068 -2.04067,-2.04068 -4.12258,-4.12259 22.86631,-12.4914 45.54785,-24.11294 70.084,-32.98071 2.09648,-0.78119 4.19296,-1.5624 6.35297,-2.36727 6.05343,-1.76659 10.81927,-2.18258 17.09425,-2.01297 z"
     fill="#1fa49a"
     id="path4"
     style="stroke-width:2.0613" />
  <path
     id="path5"
     style="stroke-width:2.0613;fill:#ffffff;fill-opacity:1"
     d="M 405.14844 371.64648 C 401.87101 395.13697 398.82942 418.60213 396.9043 442.24609 C 395.67265 457.39862 394.24443 472.50939 392.5625 487.61914 C 392.15259 491.25004 392.15182 491.25158 391.75 494.81055 C 390.51015 505.8521 389.27169 516.89208 387.98047 527.92773 C 385.53712 548.80694 383.91876 569.08619 384.53711 590.14453 C 430.87008 616.10379 476.04872 643.29191 517.3125 676.87109 C 520.88039 679.78604 524.4488 682.69955 528.04297 685.58203 C 544.64197 698.83472 559.08939 712.8508 573.40234 728.50977 C 580.34811 736.17886 587.44995 743.62965 594.78906 750.92578 C 595.15752 720.53218 595.44731 690.13751 595.61914 659.74219 C 595.70173 644.95092 595.79149 630.16146 595.97656 615.37109 C 596.14262 602.39186 596.27712 589.41384 596.32812 576.43359 C 596.34383 570.9201 596.36774 565.40606 596.39844 559.89258 C 596.52818 551.98389 596.65717 544.08169 596.66797 536.17188 C 596.66597 533.68275 596.66316 531.26746 596.66016 528.85156 C 596.72129 526.55251 596.78054 524.32128 596.83984 522.08984 C 596.59229 499.02018 582.64897 484.51619 567.00977 468.85156 C 565.72324 467.60267 564.47329 466.38988 563.22461 465.17773 C 552.71379 454.84924 542.04852 444.87388 530.44531 435.76562 C 528.49335 434.29001 526.59962 432.85798 524.70508 431.42578 C 499.41898 411.96699 472.70055 397.32973 443.52539 384.4668 C 441.55958 383.61248 439.65212 382.78231 437.74414 381.95312 C 426.9479 377.24248 416.98849 372.88648 405.15039 371.64648 L 405.14844 371.64648 z M 805.04102 371.64648 C 771.06694 371.64648 729.40619 399.57937 701.88867 418.32227 C 699.85048 419.73478 699.85136 419.73461 697.85352 421.11914 C 672.92292 438.38475 651.35251 458.25404 630.19531 479.93164 C 628.6694 481.66116 627.18999 483.34089 625.70898 485.01953 C 614.4922 496.69795 609.63821 505.23467 609.48438 521.57617 C 609.53775 523.8905 609.58872 526.13655 609.64062 528.38281 C 609.63388 536.0375 609.64887 543.68771 609.75391 551.3418 C 609.85178 558.18286 609.90318 565.02162 609.92188 571.86328 C 609.95397 584.7937 610.0472 597.7227 610.19141 610.65234 C 610.35687 625.47956 610.45695 640.30486 610.53125 655.13281 C 610.68705 687.06449 610.94163 718.99548 611.2793 750.92578 L 613.33984 750.92578 C 614.4052 749.50667 614.40497 749.50624 615.44922 748.11523 C 661.33857 681.93377 746.87028 629.20111 817.82617 594.94336 C 819.78633 594.01256 821.68929 593.10851 823.5918 592.20508 C 823.99572 578.24745 823.91578 564.53753 822.30664 550.66992 C 821.93051 547.56292 821.56354 544.45457 821.20312 541.3457 L 820.62695 536.33984 C 818.19439 514.34065 818.19395 514.33964 815.98633 492.31641 C 815.72826 489.73665 815.72953 489.73766 815.47656 487.20898 C 811.79123 450.48865 808.51863 413.73973 805.47656 376.96094 L 805.04102 371.64648 z M 353.61719 416.99609 C 352.73046 424.38563 351.81255 431.76096 350.71875 439.12305 C 349.03492 450.4048 347.48039 461.67667 346.22461 473.01367 C 344.02899 492.89101 341.73796 512.73256 338.94336 532.53516 C 338.65669 534.5518 338.37979 536.50947 338.10156 538.4668 C 336.68807 548.43001 335.27204 558.39274 333.81445 568.34961 C 333.25484 572.16904 332.70144 575.98959 332.15234 579.81055 C 331.88653 581.66229 331.62713 583.46053 331.36914 585.25781 C 329.4561 598.01325 328.43285 610.2089 328.88086 623.125 C 330.94216 625.1863 330.94306 625.18761 334.56641 626.74414 C 412.4961 657.05281 495.08413 691.38846 562.58008 741.39258 C 564.14738 742.59509 565.6702 743.76254 567.19141 744.92969 C 569.31195 746.5511 569.31209 746.54938 571.39062 748.13867 C 576.61662 752.24825 577.53797 752.98633 584.48242 752.98633 C 577.00403 746.54171 569.59647 740.03341 562.33203 733.34766 C 542.70183 715.17301 522.51869 697.69643 501.50781 681.12305 C 499.58323 679.62555 497.71366 678.1722 495.8457 676.71875 C 457.67567 646.72393 417.10268 621.98194 373.74023 600.20312 C 372.50521 599.58682 371.30613 598.9888 370.10742 598.39062 C 370.02873 592.216 370.09773 586.142 370.5625 579.98242 C 370.78247 577.81179 370.99745 575.7064 371.21094 573.59961 C 371.45921 571.11658 371.69849 568.70492 371.93945 566.29492 C 372.48441 560.96393 373.02321 555.63295 373.55664 550.30078 C 374.4182 541.68003 375.28964 533.06109 376.16211 524.44141 C 379.43593 492.10107 383.03722 459.78601 384.53711 427.30273 C 379.29103 425.17355 374.11228 423.14155 368.71484 421.42383 C 366.86692 420.88178 365.07288 420.35619 363.2793 419.83008 C 360.05988 418.88071 356.83976 417.93471 353.61719 416.99609 z M 851.85547 419.00391 C 847.32425 419.02577 843.22988 419.36539 838.48828 420.86133 C 836.66501 421.64977 834.89465 422.41443 833.125 423.17969 C 829.93836 424.53331 826.75769 425.90123 823.5918 427.30273 C 823.43038 435.63286 823.86297 443.77106 824.69141 452.06055 C 825.0276 455.30111 825.35835 458.54348 825.68359 461.78516 C 825.86317 463.57585 826.03663 465.31275 826.21094 467.05078 C 829.41087 498.56107 832.44049 530.07871 835.04102 561.64453 C 835.17819 563.31864 835.31223 564.94347 835.44531 566.56836 C 836.31465 577.17461 837.17447 587.78256 838.02148 598.39062 C 776.92042 628.94115 717.86743 666.18731 667.19141 712.27539 C 662.18945 716.91797 657.20742 721.56003 652.07031 726.05273 C 642.86771 733.96838 634.17299 742.22371 625.70898 750.92578 C 632.50654 750.92578 632.5061 750.92512 642.58789 743.49219 C 675.41887 719.04352 711.06572 699.02763 747.96289 681.41602 C 749.84845 680.51979 751.6777 679.65113 753.50781 678.78125 C 792.28729 660.18753 831.75424 643.57749 871.60352 627.44336 C 873.50174 626.67612 875.34315 625.93217 877.18555 625.1875 C 877.57667 609.07288 876.92654 593.47839 874.88086 577.49023 C 873.95619 570.55995 873.06219 563.62834 872.18945 556.69141 C 871.98806 555.08383 871.79313 553.52318 871.59766 551.96289 C 867.15529 515.07448 867.15478 515.07484 863.08789 478.14258 C 862.5221 473.01231 861.95568 467.8821 861.38867 462.75195 C 859.91749 449.44375 858.44956 436.13525 856.98633 422.82617 C 856.84555 421.54505 856.70889 420.30009 856.57227 419.05664 C 854.92486 419.02477 853.36588 418.99662 851.85547 419.00391 z M 887.24023 447.88281 C 883.13468 447.96714 879.65198 448.46756 875.125 449.97656 C 874.77046 460.55375 874.69984 471.01006 875.90625 481.53711 C 877.73541 494.1478 879.42361 506.75724 880.80078 519.42578 C 881.05673 521.82437 881.0577 521.8247 881.30859 524.17578 C 881.82712 529.02959 882.34172 533.88375 882.85352 538.73828 C 883.53798 545.2454 884.22463 551.75141 884.91602 558.25781 C 885.09091 559.89798 885.26189 561.49009 885.43164 563.08203 C 886.74495 575.43228 888.19939 587.75532 889.79492 600.07227 C 891.28839 611.34276 892.02083 622.07485 891.61523 633.43164 C 889.86861 634.09963 888.17378 634.74814 886.47852 635.39648 C 884.10771 636.30538 881.805 637.18815 879.50391 638.07031 C 838.44346 653.7956 798.3335 671.32923 758.81836 690.61133 C 756.1372 691.92371 756.13588 691.92259 753.50781 693.20898 C 743.99811 697.85497 734.52085 702.55749 725.0918 707.36523 C 723.53988 708.15881 722.0336 708.92898 720.52734 709.69922 C 692.5214 723.98967 664.96144 738.73723 638.07617 755.04883 C 644.26005 757.11013 644.25946 757.1085 648.73633 755.46289 C 663.3209 748.17889 678.28311 742.3051 693.58984 736.75 C 695.03962 736.22566 696.44637 735.71791 697.85352 735.20898 C 729.76208 723.61479 761.98826 713.21175 794.44531 703.26953 C 801.22843 701.19442 808.00868 699.11289 814.7832 697.00977 C 837.91668 689.79921 861.06044 682.71849 884.40039 676.20312 C 898.23064 672.44942 911.37624 667.84011 924.5957 662.28906 C 925.31472 646.82999 922.66412 631.64416 919.53516 616.5332 C 917.09668 604.85157 915.24971 593.18696 913.68359 581.35742 C 910.52836 557.25954 907.05227 533.21869 903.3125 509.20508 C 902.76276 505.69514 902.21341 502.18382 901.66406 498.67383 C 900.88239 493.61661 900.09939 488.56074 899.30273 483.50586 C 899.04875 481.90132 898.80315 480.34446 898.55664 478.78711 C 896.9313 468.22889 894.72724 458.12931 891.61523 447.91602 C 890.04666 447.87362 888.60875 447.8547 887.24023 447.88281 z M 328.88086 480.89648 C 327.47918 482.99901 326.12022 485.03939 324.75977 487.08008 C 305.4233 505.9879 305.42175 505.98787 296.51758 566.14648 C 295.7751 571.1807 295.01753 576.21311 294.25391 581.24414 C 293.74796 584.56825 293.24226 587.89073 292.73633 591.21484 C 290.78308 604.19506 288.62991 617.12042 286.27148 630.0332 C 284.08073 641.64941 282.88784 652.51996 283.5332 664.35156 C 301.94343 669.95099 320.42269 675.31007 338.97266 680.42773 C 341.19769 681.0396 343.358 681.63269 345.51758 682.22656 C 350.06411 683.48314 354.60947 684.73851 359.15625 685.99414 C 369.49267 688.80918 379.83922 691.53464 389.93555 695.13281 C 399.58399 698.75985 409.19416 702.10468 419.10938 704.94531 C 439.50551 710.75822 459.47464 717.53944 479.43555 724.69727 C 481.33618 725.37981 483.18067 726.04263 485.02539 726.70508 C 508.83406 735.20013 532.51516 743.7352 555.62305 754.01758 C 561.09577 756.54262 566.52667 758.96535 572.11523 761.23242 C 573.51692 760.53158 574.87587 759.85015 576.23633 759.16992 C 544.04859 739.84794 511.85574 721.02241 477.99805 704.75586 C 474.37865 703.02048 470.761 701.28457 467.14648 699.53906 C 433.63395 683.33602 400.02807 667.39011 365.7168 652.9375 C 364.31874 652.35014 362.96241 651.78102 361.60547 651.21094 C 346.56338 644.85848 331.62012 638.83616 315.89453 634.37695 L 312.39062 633.43164 C 313.44349 626.20356 314.45511 618.97559 315.36914 611.72852 C 316.99091 598.44782 318.66728 585.17775 320.49609 571.92383 C 320.72201 570.29446 320.94088 568.71425 321.16016 567.13281 C 322.05745 560.63195 322.95484 554.13098 323.85742 547.63086 C 326.98168 525.39064 329.70769 503.33797 330.94336 480.89648 L 328.88086 480.89648 z " />
  <path
     id="path6"
     style="stroke-width:2.0613;fill:#8cebdd;fill-opacity:1"
     d="M 549.31055 142.07031 C 529.72197 142.04571 511.00467 143.43844 491.72461 146.9668 L 491.72461 149.02734 C 570.05069 149.86994 647.09154 159.08012 715.64844 200.29492 C 718.0083 201.78694 720.29744 203.23545 722.58789 204.68359 C 745.53999 219.16799 767.9101 234.52684 786.78711 254.21094 C 788.08749 255.59345 789.34919 256.93352 790.61133 258.27539 C 836.71546 305.40895 863.84278 359.93366 879.03711 423.75195 C 879.80913 427.06177 880.55927 430.27385 881.30859 433.48633 C 888.31699 432.08465 895.1196 430.72372 901.92188 429.36328 C 901.92188 393.04409 883.2833 355.60742 865.0918 325.07422 C 812.50905 240.38779 734.07128 176.61599 635.89453 152.89258 C 633.1863 152.29184 630.47756 151.69147 627.76953 151.08984 C 603.02588 145.14924 578.94359 142.13501 553.50195 142.07031 C 552.07683 142.07057 550.69375 142.07007 549.31055 142.07031 z M 118.62891 536.55078 C 101.32435 590.93872 95.123919 648.43631 108.47656 704.38867 C 109.03779 706.67597 109.58225 708.89715 110.12695 711.11719 C 112.7708 722.33687 115.10411 733.6686 119.5957 744.32227 C 120.66885 746.56714 121.71036 748.74693 122.75195 750.92578 C 125.86756 757.6141 129.087 764.24039 132.38672 770.83984 C 168.00475 840.67351 234.56062 898.01171 309.42773 922.65625 C 313.17717 923.77183 316.9141 924.93273 320.63672 926.13477 C 363.84694 945.24204 411.78973 949.26938 458.49805 949.33008 C 460.24619 949.32908 461.94195 949.32522 463.63867 949.32422 C 480.40078 949.31188 497.34011 949.709 513.98047 947.45703 C 515.52383 947.21613 517.02351 946.98189 518.52148 946.74805 C 551.79323 941.80419 584.26376 935.64386 615.92969 924.12109 C 617.85256 923.40418 619.71963 922.70951 621.58594 922.01367 C 664.12928 906.16812 704.98341 886.06998 741.31836 858.61133 C 743.36065 857.03991 745.342 855.51543 747.32422 853.99023 C 779.3673 830.42625 806.77087 800.15109 830.22852 768.14844 C 831.16975 766.84788 832.08254 765.58652 832.99609 764.32422 C 838.49053 756.75866 843.19107 749.52703 846.26562 740.61914 C 836.54903 740.05794 827.95625 741.57391 818.56055 743.7793 C 815.76705 744.46041 815.76552 744.46132 813.02734 745.12891 C 803.16913 747.29829 795.10029 748.48218 787.8418 755.78906 C 770.88601 782.82237 741.87701 804.22358 716.44531 822.78906 C 714.32911 824.28656 712.27466 825.73991 710.2207 827.19336 C 708.08258 828.71277 706.00687 830.1874 703.93164 831.66211 C 619.16984 889.0159 510.07149 912.04645 409.59766 893.83594 C 407.16525 893.38558 404.80423 892.94687 402.44336 892.50977 C 378.27358 888.23644 355.12779 882.27034 332.41016 872.87305 C 330.81652 872.19119 329.26944 871.52899 327.72266 870.86719 C 314.4444 865.20792 301.66612 859.17883 289.35547 851.58984 C 287.37615 850.30314 285.4543 849.05548 283.5332 847.80664 C 267.90836 837.71757 253.29202 827.04297 239.73047 814.23047 C 237.80317 812.33053 235.93313 810.48662 234.0625 808.64258 C 204.56482 779.70916 179.00747 742.40945 169.38086 701.63086 C 168.94557 699.46811 168.52405 697.37063 168.10156 695.27148 C 159.72644 655.70381 158.29832 615.06747 166.74805 575.38477 C 167.20798 573.39449 167.65516 571.46299 168.10156 569.53125 L 163.97852 569.53125 C 154.10677 575.70109 143.89773 579.8147 133.05859 583.96094 L 133.05859 577.77734 C 130.04889 570.41012 127.9036 563.40823 126.375 555.57422 C 126.10671 554.1438 125.84634 552.75555 125.58594 551.36719 C 125.04328 548.56254 124.50256 545.75798 123.96094 542.95312 C 123.55028 540.7767 123.15053 538.66321 122.75195 536.55078 L 118.62891 536.55078 z " />
  <path
     d="m 941.08604,720.00617 c -20.27291,39.60726 -44.0249,74.45503 -74.2066,107.1873 -2.32765,2.64651 -2.32765,2.64651 -4.70232,5.34648 -9.51325,10.81644 -19.30216,20.46587 -30.33968,29.69552 -1.92376,1.6926 -3.84753,3.38519 -5.82959,5.12908 -45.48319,39.82643 -99.54882,70.90157 -157.01266,89.69046 -1.41259,0.48293 -2.82519,0.96587 -4.28059,1.46344 -10.92798,3.72085 -21.91126,6.9599 -33.08036,9.87368 -2.53665,0.66262 -2.53665,0.66262 -5.12455,1.33862 -29.19586,7.50776 -57.73697,12.33361 -87.92356,12.47849 -2.95184,0.0177 -2.95184,0.0177 -5.96333,0.0356 -4.15046,0.0194 -8.30095,0.0329 -12.45143,0.0409 -6.18716,0.0198 -12.37286,0.0837 -18.5597,0.14896 -36.91473,0.20639 -73.23107,-2.75509 -108.57223,-14.04256 -3.02515,-0.91274 -3.02515,-0.91274 -6.11142,-1.8439 -8.61105,-2.63083 -17.09561,-5.41567 -25.48436,-8.68803 -7.84491,-3.01743 -15.84218,-4.78529 -24.05916,-6.47375 -19.47651,-4.25165 -37.55075,-11.42157 -55.91261,-19.06697 4.08137,-5.44183 8.16272,-10.88364 12.36776,-16.49035 6.18571,1.92679 12.36921,3.86021 18.55165,5.79738 2.5947,0.8071 2.5947,0.8071 5.24181,1.63052 7.99627,2.51045 15.88697,5.09058 23.68073,8.17674 9.05846,3.45932 18.25943,5.37137 27.76305,7.19842 2.42331,0.49622 2.42331,0.49622 4.89558,1.00246 28.80266,5.67395 57.15807,7.9558 86.44552,7.88687 1.64467,2.5e-4 3.28934,5e-4 4.98384,7.6e-4 30.65095,-0.0655 60.12367,-2.93622 90.22219,-9.01893 1.56439,-0.30822 3.12878,-0.61645 4.74058,-0.93402 9.56452,-1.95176 18.91138,-4.46018 28.24012,-7.31115 1.81782,-0.55236 3.63563,-1.10471 5.50853,-1.6738 70.39307,-21.72538 134.19343,-55.25315 187.35735,-106.7847 2.71781,-2.62067 5.48439,-5.1905 8.25525,-7.75501 22.3287,-21.21587 40.8417,-46.99423 56.54065,-73.42555 -1.36045,-0.68023 -2.72091,-1.36046 -4.12259,-2.0613 59.51101,-14.60653 59.51101,-14.60653 78.45801,-18.55165 2.23465,-0.46766 4.46931,-0.93531 6.77167,-1.41714 5.41023,-0.63744 8.56174,-0.0418 13.71245,1.41714 z"
     fill="#43b6e0"
     id="path8"
     style="stroke-width:2.0613" />
  <path
     id="path9"
     style="stroke-width:2.0613;fill:#f8fafa;fill-opacity:1"
     d="M 283.5332 192.31445 C 278.52646 196.29706 273.79678 200.33976 269.10352 204.68359 C 215.59476 258.50031 180.47375 323.69834 178.40625 400.50586 C 191.87864 409.24158 205.47944 417.66397 219.42383 425.62695 C 221.50993 426.80962 223.53386 427.95758 225.55859 429.10547 C 228.73025 430.93527 228.73099 430.93496 231.83984 432.72852 C 233.90404 433.90024 235.90668 435.03852 237.91016 436.17578 C 244.83636 440.12717 250.75165 443.29758 258.79688 443.79297 C 271.87243 437.57963 271.87387 437.58012 294.10352 415.5332 C 295.76612 413.84064 297.37847 412.19747 298.99219 410.55469 C 343.57531 365.38545 375.60644 308.67915 378.35352 243.84766 C 349.33726 236.1058 321.42641 223.00959 298.86328 202.87891 C 294.00188 198.22324 289.68901 195.08928 283.5332 192.31445 z M 178.40625 416.99609 C 176.08729 421.63401 176.08758 421.63389 172.22266 433.48633 C 179.22439 438.15414 179.22567 438.15397 195.30078 446.5625 C 198.61068 448.28657 198.60916 448.28661 201.85352 449.97656 C 204.06554 451.13731 206.21437 452.264 208.36133 453.39062 C 211.54112 455.04964 211.53943 455.04961 214.65625 456.67578 C 221.69835 460.35314 228.70276 463.62405 236.12305 466.4668 C 239.048 461.00689 240.90313 455.99522 242.30664 449.97656 C 234.67714 445.815 227.06707 441.64604 219.60352 437.19141 C 218.06666 436.26541 216.57563 435.36753 215.08398 434.46875 C 211.96154 432.59697 208.83924 430.72269 205.71875 428.84766 C 196.81453 423.39842 189.02959 418.08352 178.40625 416.99609 z M 192.53906 459.38477 C 177.93986 459.04034 167.10134 470.53934 161.91602 485.01953 C 160.90593 496.01705 158.95582 510.01516 163.97852 520.06055 L 168.10156 520.06055 C 184.18232 510.86703 197.28629 501.14233 203.14258 482.95703 C 204.19386 474.03742 204.15818 467.99119 199.01953 460.2832 C 196.78589 459.72479 194.62466 459.43397 192.53906 459.38477 z " />
  <path
     id="path10"
     style="stroke-width:2.0613;fill:#f4f9f9;fill-opacity:1"
     d="M 118.62891 536.55078 C 101.32435 590.93872 95.123919 648.43827 108.47656 704.39062 C 109.03779 706.67793 109.58225 708.89716 110.12695 711.11719 C 112.7708 722.33688 115.10411 733.67055 119.5957 744.32422 C 120.66885 746.5691 121.71036 748.74694 122.75195 750.92578 C 125.86756 757.61411 129.087 764.24038 132.38672 770.83984 C 168.00475 840.6735 234.56062 898.01366 309.42773 922.6582 C 313.17717 923.77378 316.9141 924.93468 320.63672 926.13672 C 363.84694 945.24399 411.78973 949.26938 458.49805 949.33008 C 460.24619 949.32908 461.94195 949.32717 463.63867 949.32617 C 480.40078 949.31384 497.34011 949.709 513.98047 947.45703 C 515.52383 947.21613 517.02351 946.98384 518.52148 946.75 C 551.79323 941.80614 584.26376 935.64582 615.92969 924.12305 C 617.85256 923.40613 619.71963 922.70951 621.58594 922.01367 C 664.12928 906.16811 704.98341 886.07193 741.31836 858.61328 C 743.36065 857.04187 745.342 855.51542 747.32422 853.99023 C 779.3673 830.42624 806.77087 800.15305 830.22852 768.15039 C 831.16975 766.84984 832.08254 765.58652 832.99609 764.32422 C 838.49053 756.75865 843.19107 749.52703 846.26562 740.61914 C 840.54336 740.36459 835.08705 740.55053 829.38086 741.0957 C 822.54457 742.96879 821.00522 744.50266 817.2793 750.41016 C 815.27383 754.02459 813.25422 757.63149 811.22461 761.23242 C 754.10781 841.55603 660.5376 896.4751 564.92969 916.81836 C 563.16766 917.18281 561.45629 917.53689 559.74609 917.89062 C 531.89685 923.83141 504.15651 924.61363 475.7793 924.70703 C 473.79753 924.70983 471.87465 924.71475 469.95117 924.71875 C 448.54428 924.80504 427.58509 924.81164 406.44141 921.01367 C 403.18258 920.37498 399.91952 919.76253 396.64648 919.20117 C 367.97032 914.31777 340.01841 906.43737 313.4707 894.5 C 311.00134 893.34199 308.60376 892.21772 306.20703 891.09375 C 264.58721 871.8528 227.63894 846.8954 197.61914 811.86133 C 196.69381 810.7666 195.79655 809.7051 194.89844 808.64258 C 170.60095 779.91661 153.66622 748.91748 142.8125 712.83398 C 142.05111 710.21024 142.05102 710.21045 141.30469 707.63867 C 130.61489 670.84195 129.91 630.84216 134.29102 592.89062 C 135.27842 585.75043 135.00267 583.61547 132.54297 576.35938 C 129.45654 569.48958 127.76327 562.68138 126.28516 555.29688 C 126.00386 553.82898 125.73005 552.40519 125.45703 550.98047 C 124.9302 548.23274 124.40638 545.48347 123.88672 542.73438 C 123.50071 540.63185 123.12661 538.59147 122.75195 536.55078 L 118.62891 536.55078 z M 186.65234 656.10547 C 186.43416 660.25108 186.26644 664.40336 186.27344 668.55469 C 188.47823 704.11273 202.95531 743.18043 229.60156 767.65039 C 230.96636 768.84028 232.29015 769.99522 233.61523 771.15039 C 238.29123 775.94439 242.87754 780.16214 247.95703 784.04297 C 250.20044 786.05414 252.41935 788.09235 254.67578 790.08984 C 254.84379 789.75384 255.00407 789.43344 255.16992 789.10156 C 255.68616 789.43299 256.20689 789.76209 256.73633 790.08984 C 256.40713 789.37219 256.07045 788.67238 255.73047 787.98047 C 256.06487 787.31118 256.40414 786.63117 256.73633 785.9668 C 254.70622 783.80981 252.74994 781.61644 250.83594 779.40234 C 250.30898 778.59755 249.76841 777.79325 249.19922 776.98242 C 247.27997 774.49389 247.2797 774.49394 245.39844 772.05469 C 241.63642 767.11306 241.57928 767.04022 238.26758 763.38477 C 229.36599 750.88395 221.78312 737.5682 214.95508 723.39648 C 213.15042 719.57975 211.33379 715.77407 209.46094 711.99023 C 202.78044 698.57094 196.71295 685.60216 193.22266 670.92188 C 192.8272 668.9552 192.51509 667.36016 192.18164 665.9082 C 191.94217 664.80969 191.67557 663.81345 191.32422 662.86719 C 191.31411 662.84027 191.30321 662.81005 191.29297 662.7832 C 190.87891 661.68688 190.3488 660.64862 189.61133 659.57422 C 188.86643 658.489 187.91216 657.36528 186.65234 656.10547 z M 734.95703 765.35547 C 728.12091 765.35547 722.90003 765.5357 716.4043 767.41602 C 706.71428 781.95104 693.76389 794.06605 679.63086 804.68555 C 679.52178 804.63101 679.40983 804.57406 679.30078 804.51953 C 677.08241 806.39761 674.8377 808.16156 672.56055 809.85742 C 666.8989 813.81625 661.1127 817.56923 655.29492 821.14258 C 654.67981 821.50399 654.08083 821.85539 652.89062 822.55469 C 650.0861 824.21914 647.28157 825.88323 644.47656 827.54688 C 642.30013 828.82808 640.18859 830.07288 638.07617 831.31641 C 640.17869 832.01726 642.2191 832.69672 644.25977 833.37695 C 644.68483 833.21845 645.14424 833.01532 645.57227 832.85352 C 646.28121 832.7138 647.07149 832.45892 648.17773 832.09766 C 649.25918 831.56913 650.30741 831.05708 651.35938 830.54297 C 683.16129 817.76984 720.67253 796.39681 734.95703 765.35547 z M 337.12695 835.43945 L 337.12695 837.5 C 342.25192 840.56195 347.43514 843.47013 352.68359 846.31641 C 403.93978 871.88652 457.73203 874.48751 512.33594 858.11328 C 519.9604 855.50295 531.90967 853.40617 538.22266 847.45703 C 539.18176 846.90498 540.07356 846.39465 541.19531 845.74609 C 540.7798 845.60759 540.40276 845.48323 540.02148 845.35742 C 540.42157 844.80469 540.88919 844.29585 541.19531 843.68359 C 539.91443 843.97573 538.67998 844.25714 537.42773 844.54297 C 532.55067 843.15656 530.10699 843.67406 521.80859 847.98242 C 501.78009 852.77217 483.0009 854.81455 462.37109 854.73438 C 457.25631 854.68218 452.14242 854.63366 447.02734 854.64062 C 424.11307 854.70137 402.56291 853.34666 380.20508 847.87891 C 377.73572 847.19724 375.33814 846.53467 372.94141 845.87305 C 362.10004 842.89195 351.30144 839.78893 340.54883 836.50195 C 339.38534 836.14058 338.25624 835.7902 337.12695 835.43945 z " />
  <path
     id="path11"
     style="stroke-width:2.0613;fill:#116576;fill-opacity:1"
     d="M 801.34766 356.95508 C 797.07625 357.08333 793.25881 357.64967 788.71875 358.97461 C 786.55873 359.77948 784.46367 360.5606 782.36719 361.3418 C 757.83104 370.20957 735.14951 381.83087 712.2832 394.32227 C 713.68489 395.72395 715.04385 397.0829 716.4043 398.44336 C 716.14148 400.63348 715.8879 402.76101 715.63281 404.88672 C 714.98222 407.87947 714.98147 407.87903 714.34375 410.8125 C 744.00296 395.91008 773.39813 381.84852 805.04102 371.64648 C 804.89641 383.39492 805.21878 394.97504 806.08789 406.69141 C 806.25779 408.8374 806.42104 410.91909 806.58594 413.00195 C 808.71526 440.31725 811.45984 467.56627 814.23242 494.82227 C 814.41534 496.62036 814.59198 498.36611 814.76953 500.11133 C 814.95208 501.90624 815.12947 503.64851 815.30664 505.39062 C 817.15701 523.58452 818.91085 541.7853 820.60742 559.99414 C 820.746 561.48467 820.8812 562.93223 821.01562 564.37891 C 821.87877 573.65436 822.73813 582.92877 823.5918 592.20508 C 817.40792 592.20508 817.40883 592.20679 813.38086 594.10352 C 811.84845 594.99446 810.36038 595.85793 808.87305 596.72266 C 807.17708 597.69762 805.53087 598.64356 803.88477 599.58984 C 800.72831 601.42395 797.55964 603.23869 794.375 605.02344 C 756.76549 625.99931 720.81121 649.32459 687.54688 676.71875 C 688.94855 677.41958 690.30946 678.10102 691.66992 678.78125 C 689.5674 682.28545 687.52701 685.6848 685.48633 689.08594 L 689.60742 693.20898 C 693.71299 691.26639 697.55313 689.29307 701.29297 686.70703 C 702.45579 685.81027 703.58426 684.94069 704.71289 684.07031 C 706.04372 683.05396 707.33526 682.06849 708.62695 681.08203 C 732.86907 662.46304 757.51668 644.72023 784.25781 629.83984 C 791.20422 626.01144 798.11317 622.12003 805.01562 618.21289 C 815.40214 612.33026 825.79499 606.45644 836.18945 600.58789 C 837.51345 599.8405 838.79697 599.11601 840.08203 598.39062 C 839.03597 589.87267 838.13131 581.38779 837.52539 572.82617 C 836.52179 557.0472 835.35469 541.30798 833.89258 525.56445 C 833.63165 522.81722 833.37827 520.15081 833.125 517.48438 C 830.41927 488.74072 827.35879 460.04763 824.0625 431.36523 C 823.8254 429.31383 823.82422 429.31352 823.5918 427.30273 C 830.20103 425.37739 836.79145 423.47276 843.48828 421.875 C 845.08981 421.53005 846.64479 421.19611 848.19922 420.86133 C 850.98959 420.25573 853.77966 419.65188 856.57227 419.05664 C 856.4487 430.94036 857.24301 442.50649 858.35352 454.32812 C 858.62454 457.09744 858.88733 459.7848 859.15039 462.47266 C 861.27331 484.44545 863.83393 506.31013 866.87891 528.17773 C 871.38141 560.42627 874.39319 592.75373 877.18555 625.1875 C 872.30636 625.1875 872.30703 625.18706 849.16016 634.45703 C 847.73839 635.02845 846.35846 635.5821 844.97852 636.13672 C 807.33241 651.251 770.61724 667.91534 734.38281 686.16602 C 731.26776 687.74174 728.15324 689.31704 725.03711 690.89062 C 720.55429 693.123 716.07452 695.35766 711.61523 697.63672 C 710.20773 698.35966 708.84071 699.06199 707.47461 699.76367 C 700.19114 703.35994 694.70444 706.13041 690.16602 713.1543 C 689.27543 714.78287 688.41128 716.36464 687.54688 717.94531 C 685.44435 718.64615 683.40395 719.32564 681.36328 720.00586 C 682.06411 722.10839 682.74361 724.14876 683.42383 726.18945 C 691.44527 726.18945 694.60304 725.04819 701.39062 721.27344 C 717.35887 712.17797 733.77215 704.1975 750.41602 696.42969 C 756.48724 693.60671 762.55149 690.77192 768.60547 687.91211 C 791.64372 677.01393 814.54618 665.68134 838.53711 657.00781 C 846.32477 654.23593 853.86312 651.52484 861.21094 647.73242 C 874.8151 641.10326 874.81563 641.10287 888.8457 635.39648 C 890.48829 634.72849 892.08149 634.07998 893.67578 633.43164 C 893.70028 632.15041 893.72415 630.90759 893.74805 629.66406 C 893.76725 627.96671 893.78609 626.3193 893.80469 624.67188 C 893.85261 621.40824 893.81076 618.14207 893.67578 614.88086 C 892.35898 609.97688 891.48096 605.43409 890.91211 600.36328 C 890.58568 596.56404 890.25769 592.76523 889.92188 588.9668 C 889.79502 587.53686 889.67193 586.14962 889.54883 584.76172 C 887.56405 562.00968 885.49505 539.31934 882.21094 516.71094 C 878.98205 494.53881 876.94267 472.30428 875.125 449.97656 L 891.61523 449.97656 C 897.80391 487.66981 903.96344 525.35946 909.47852 563.1582 C 911.18848 574.88141 912.93591 586.59672 914.78516 598.29883 C 915.05481 599.99447 915.31641 601.6394 915.57812 603.28516 C 916.51684 609.21237 917.45721 615.13981 918.41211 621.06445 C 918.85287 623.73091 919.28118 626.31818 919.70898 628.90625 L 920.85938 636.00781 C 922.3337 644.87771 922.59136 653.30098 922.53516 662.28906 C 915.77851 664.32037 909.02089 666.35148 902.26367 668.38086 C 899.44413 669.22757 896.62418 670.07497 893.80469 670.92188 C 889.77778 672.1326 885.75189 673.34323 881.72461 674.55273 C 880.33772 674.96904 878.99064 675.37329 877.64453 675.77734 C 870.58642 677.89731 863.52765 680.01542 856.45312 682.08008 C 834.57324 688.42742 812.84319 695.13685 791.18359 702.20117 C 788.55252 703.06046 788.55359 703.06009 785.97461 703.90234 C 741.17627 718.50119 695.90284 732.48686 652.50391 750.92578 C 653.20476 754.42999 653.88619 757.83128 654.56641 761.23242 C 665.03957 757.92919 675.51835 754.64467 686.08398 751.64844 C 707.63454 745.6374 728.96737 739.30973 750.1582 732.11719 C 763.52287 727.57494 776.80079 723.23011 790.48242 719.74805 C 799.55758 717.44913 808.33388 714.82785 817.12695 711.64844 C 842.7389 702.28815 868.86824 694.77991 895.15234 687.54492 C 896.95577 687.05317 898.70469 686.5769 900.45508 686.09961 C 903.73421 685.20335 907.01438 684.30908 910.29492 683.41797 C 921.00626 680.59457 931.00036 677.15978 941.08594 672.5957 C 941.57186 662.67625 940.14109 653.49674 938.45703 643.76953 C 935.61751 627.8269 932.95323 611.89049 930.79883 595.83984 C 927.4038 570.38872 923.63897 545.00462 919.7207 519.62891 C 918.68666 512.96035 917.6489 506.29348 916.62695 499.62305 C 915.60096 492.90637 914.57306 486.18946 913.53516 479.47461 C 912.93638 475.60955 912.93652 475.61079 912.34961 471.82227 C 910.25893 458.089 908.23742 444.6724 903.98242 431.42578 C 894.8502 431.0605 886.95258 430.99799 878.08789 433.48633 C 876.37959 434.18717 874.72055 434.86665 873.0625 435.54688 C 872.1949 423.99411 871.17438 413.44825 866.87891 402.56641 C 851.63223 401.27431 840.83315 404.80763 826.74023 410.61914 C 824.96896 411.38569 823.25041 412.12906 821.53125 412.87305 C 821.8563 393.5506 821.24841 375.7078 815.34766 357.21875 C 813.29014 357.14552 813.2902 357.14592 811.27344 357.07422 C 809.41731 357.0359 807.61599 356.99814 805.81445 356.96094 C 804.24571 356.91853 802.77146 356.91233 801.34766 356.95508 z M 930.7793 482.95898 C 930.48681 492.99384 930.94319 501.90369 933.08203 511.77539 C 937.4481 531.27587 940.89267 550.93637 944.17383 570.64258 C 944.4381 572.23624 944.69468 573.78329 944.95117 575.33008 C 951.57885 615.2545 957.70116 655.25736 963.75977 695.27148 L 957.57617 695.27148 C 949.16636 698.73529 940.95795 701.09847 932.12695 703.21094 C 930.00459 703.70903 927.94471 704.19235 925.88477 704.67578 C 887.81211 713.62133 887.81047 713.62281 849.69727 722.39453 C 821.20115 728.95413 792.7241 735.5691 764.31836 742.51172 C 758.49249 743.93778 752.66483 745.36147 746.83789 746.7832 C 742.32997 747.88302 737.82362 748.98698 733.31836 750.09766 C 721.37016 753.0441 709.4389 756.04947 697.36133 758.42383 C 695.3358 758.78794 693.37025 759.14073 691.4043 759.49414 C 687.9308 760.1292 684.45471 760.75228 680.97656 761.36133 C 671.03533 762.74334 664.66662 764.7488 658.03711 772.53711 C 654.38991 777.40694 651.71263 780.4138 646.83594 784.29297 C 644.55822 785.56325 642.34745 786.79638 640.13672 788.0293 C 629.05013 794.27495 618.90249 796.7574 606.27344 797.03711 C 604.69022 797.03911 603.15384 797.04386 601.61719 797.04688 C 595.86019 797.05989 590.20639 796.91449 584.48242 796.27344 C 572.26943 793.27398 558.08894 790.30587 550.4707 779.5332 C 545.34822 771.40928 541.7484 766.2878 532.45898 762.9707 C 528.35436 762.07158 524.24932 761.17163 520.15234 760.23828 C 518.60383 759.88521 517.10258 759.54191 515.59961 759.19922 C 507.73693 757.47298 499.9142 755.61883 492.0957 753.70312 C 488.90253 752.91998 485.70697 752.1418 482.51172 751.36719 C 480.85961 750.96808 479.25586 750.58071 477.65234 750.19336 C 474.3981 749.40658 471.14504 748.62002 467.89062 747.83398 C 450.94212 743.74963 433.98831 739.70264 417.15039 735.17969 C 406.48852 732.2989 395.85767 729.48179 385.05469 727.18164 C 372.76754 724.61058 360.57371 721.80474 348.44922 718.55078 C 331.93569 714.08664 315.36112 709.92466 298.71289 705.99414 C 295.92889 705.33991 293.14525 704.6858 290.36133 704.03125 C 277.23732 700.91503 264.16995 697.56558 250.76953 695.88281 C 248.5931 695.67475 246.48155 695.47343 244.36914 695.27148 C 248.05363 676.29075 251.42141 657.27971 254.54688 638.19922 C 256.55548 625.90829 258.76607 613.66926 261.0957 601.44141 C 264.86035 582.69555 268.30844 563.99786 269.10352 544.79688 L 267.04297 544.79688 C 265.66977 547.13685 264.56634 549.50627 263.63281 551.91992 C 263.60901 551.98068 263.58219 552.04657 263.55859 552.10742 C 262.70075 554.34888 261.99657 556.63388 261.35547 558.9668 C 261.28823 559.20934 261.2014 559.40565 261.13477 559.65234 C 261.07454 559.91737 261.01692 560.16809 260.95703 560.43164 C 260.53013 562.06662 260.12808 563.72554 259.72852 565.41797 C 259.36852 566.99212 259.01737 568.51901 258.66797 570.04688 C 257.59035 574.55762 256.54196 579.06547 255.57617 583.60156 C 255.2699 585.12505 254.97306 586.60529 254.67578 588.08398 C 254.62962 588.3092 254.58932 588.52686 254.54492 588.75 C 254.39594 589.41195 254.2488 590.07443 254.09961 590.73633 C 252.23986 598.9869 250.39472 607.24001 248.56836 615.49805 C 247.85578 618.72753 247.14229 621.958 246.42969 625.1875 C 244.55104 633.65932 242.67562 642.13062 240.85547 650.61523 C 240.02698 654.49415 240.02693 654.49476 239.21484 658.29688 C 235.70553 674.29395 233.22991 689.16264 234.0625 705.57617 C 238.18509 707.63745 238.18399 707.63865 244.2793 709.28125 C 248.29267 710.27341 248.29267 710.27357 252.22656 711.24609 C 264.70355 714.3373 277.20521 717.31625 289.7168 720.26367 C 302.50857 723.274 315.27339 726.38069 328.01367 729.60156 C 362.19375 738.25787 396.3554 746.86675 430.79883 754.42188 C 433.87086 755.09506 436.94234 755.76892 440.01367 756.44531 C 445.99896 757.76507 451.98511 759.08393 457.9707 760.40234 C 459.4637 760.73105 460.91224 761.0501 462.36133 761.36914 C 465.27766 762.01127 468.19471 762.65215 471.11133 763.29297 C 479.78959 765.18779 488.46525 767.08641 497.125 769.06445 C 499.84399 769.6864 502.48402 770.29086 505.12305 770.89453 C 507.69559 771.44941 510.19256 771.98878 512.68945 772.52734 C 515.04468 773.07573 517.32927 773.60642 519.61523 774.13867 C 527.29905 775.86009 530.16354 776.91329 535.48438 782.85742 C 539.13291 788.02877 539.13449 788.02937 542.82227 791.90234 C 544.10897 793.08227 545.35663 794.22783 546.60547 795.37305 C 559.52967 807.59178 576.01284 811.71837 593.36328 811.73047 C 595.33713 811.68802 597.25217 811.64657 599.16797 811.60547 C 603.03816 811.63477 606.90916 811.63286 610.7793 811.59766 C 629.12071 810.69676 647.25296 802.45085 659.72656 788.74609 C 668.73323 777.19835 676.91206 775.43981 690.91602 773.41602 C 703.33337 771.68124 715.6797 770.01446 727.74219 766.51367 C 735.55485 764.20539 743.36966 762.31132 751.34766 760.65625 C 769.36807 756.96372 787.33644 753.07034 805.28125 749.02539 C 807.37167 748.55333 807.3709 748.55452 809.41992 748.0918 C 828.95112 743.68185 848.45104 739.15499 867.91016 734.43555 C 880.61243 731.34296 893.32312 728.30719 906.08203 725.45703 C 908.27487 724.9688 908.27441 724.96879 910.42383 724.49023 C 917.55358 722.8994 924.68375 721.3062 931.82031 719.74609 C 944.86976 716.89492 970.46986 715.77867 978.69531 703.94531 C 982.08899 694.0156 982.0878 694.01721 974.13672 655.68164 L 972.52148 648.11914 C 968.18352 627.56273 963.73266 607.0405 958.72852 586.63477 C 957.275 580.76388 955.81863 574.89333 954.37695 569.01953 C 952.14101 559.89611 949.90047 550.77327 947.64648 541.6543 C 946.70457 537.84904 945.76318 534.04378 944.82227 530.23828 C 943.46586 524.71644 942.10838 519.19571 940.73633 513.67773 C 940.2996 511.92508 939.87505 510.22259 939.45117 508.52148 C 937.28118 499.64498 935.43615 490.92685 930.7793 482.95898 z " />
  <path
     d="m 312.00481,244.36254 c 11.56982,6.35205 20.93846,13.28097 25.12202,26.2815 1.53666,13.69325 2.45002,27.74555 -6.18387,39.16459 -10.6937,10.66787 -19.28815,17.07536 -34.78434,17.1345 -12.27982,-0.28281 -19.85923,-1.69407 -28.78566,-10.62049 -11.34107,-12.45429 -15.89546,-20.76047 -15.53218,-37.81187 1.9068,-14.32082 11.40436,-23.44698 22.1106,-32.33656 10.50345,-7.1931 26.57518,-6.45343 38.05343,-1.81167 z"
     fill="#0f667a"
     id="path18"
     style="stroke-width:2.0613" />
  <path
     id="path19"
     style="stroke-width:2.0613;fill:#f9cc25;fill-opacity:1"
     d="M 368.27539 147.39844 C 366.95789 147.3149 365.8675 147.66289 363.68945 148.35938 C 361.66632 149.28743 359.70386 150.18906 357.74023 151.08984 C 336.6794 160.46774 316.07894 169.58679 297.96289 184.07031 C 309.41725 199.28148 324.63579 208.95033 341.34766 217.69922 C 342.8034 218.44199 344.21597 219.16387 345.62891 219.88477 C 356.97501 225.76073 367.83927 229.17405 380.41406 231.47852 C 380.54255 224.76454 380.6447 218.05275 380.7168 211.33789 C 380.742 208.5613 380.76968 205.78435 380.80078 203.00781 C 381.15312 184.91131 382.25327 165.79396 374.23047 149.02734 C 371.13853 147.9967 369.59289 147.48198 368.27539 147.39844 z M 176.3457 330.42188 C 159.34261 330.42188 139.07191 344.69487 128.12305 356.92773 C 111.564 379.00644 104.21775 408.23703 106.26172 435.54688 C 108.36424 433.70717 110.40462 431.92231 112.44531 430.13672 C 115.19521 427.81956 117.94448 425.50037 120.69141 423.17969 C 132.49918 412.42894 142.99673 408.65091 158.69531 405.54688 C 160.49122 405.23478 162.23544 404.93182 163.97852 404.62891 C 170.1624 367.52561 170.16181 367.52517 176.3457 330.42188 z M 318.57422 406.68945 C 302.32066 423.42739 285.01592 438.7536 266.70508 453.20508 C 265.41838 454.2098 264.16876 455.185 262.91992 456.16016 C 270.55188 475.87608 271.56609 496.04773 267.04297 516.71094 C 266.34212 519.25147 265.66264 521.71776 264.98242 524.18359 C 274.01351 520.25612 274.01169 520.25646 289.80469 505.58398 C 310.26711 485.47796 325.00284 464.30646 325.40234 434.77539 C 325.18317 424.55567 326.11081 414.22604 318.57422 406.68945 z " />
  <path
     d="m 176.34589,447.91534 c 0,1.36045 0,2.72091 0,4.12258 -3.89019,2.96485 -7.96048,5.55868 -12.0779,8.19687 -9.03973,8.54485 -13.05548,18.32987 -13.53529,30.71006 0.0351,3.52206 0.11353,7.04394 0.2335,10.56414 0.0299,2.63056 0.0299,2.63056 0.0604,5.31428 0.1893,10.7318 1.1327,21.16561 2.64506,31.78901 31.635,-14.53501 31.635,-14.53501 55.65495,-39.16459 2.06664,-6.19993 2.68616,-11.41587 3.22077,-17.90749 0.17271,-2.04865 0.34543,-4.09731 0.52338,-6.20804 0.18732,-2.34757 0.18732,-2.34757 0.37843,-4.74258 2.72092,1.36045 5.44182,2.7209 8.24518,4.12258 1.53068,19.79676 -1.0886,33.52087 -13.40646,49.32613 -16.06742,17.4225 -38.98983,28.79055 -60.80012,37.24823 -2.04069,0 -4.08137,0 -6.18389,0 -4.90876,-16.03526 -6.5923,-31.4513 -6.69921,-48.18276 -0.0425,-1.64742 -0.0851,-3.29484 -0.1289,-4.99218 -0.12418,-19.18424 5.38582,-35.75415 18.90594,-49.72874 12.13898,-11.40882 12.13898,-11.40882 22.9641,-10.4675 z"
     fill="#f08b36"
     id="path22"
     style="stroke-width:2.0613" />
  <path
     d="m 304.14613,256.21498 c 7.70181,2.62432 13.08473,6.68402 18.42282,12.88309 3.97361,10.28466 3.386,18.70416 -0.1289,28.85811 -4.90025,7.18703 -8.28781,10.22504 -16.2327,13.91374 -9.16725,1.45967 -18.25103,2.21598 -26.74046,-2.03714 -7.37297,-5.85127 -11.65707,-12.11134 -13.26152,-21.32151 -0.38155,-10.09494 0.083,-16.2936 6.76361,-24.17995 9.30125,-9.54838 18.27596,-9.50688 31.17708,-8.11634 z"
     fill="#83e8d7"
     id="path23"
     style="stroke-width:2.0613" />
  <path
     id="path28"
     style="fill:#e9f5f9;fill-opacity:1;stroke-width:2.0613"
     d="m 471.11133,74.820312 c -0.70084,5.606721 -1.38227,11.048418 -2.0625,16.490235 -5.60671,0.70084 -11.04843,1.382273 -16.49024,2.0625 v 4.123047 c 7.18998,1.587817 7.19061,1.586324 14.42969,4.121096 2.06129,6.18388 2.061,6.18525 6.1836,12.36914 1.40169,-4.90588 2.7626,-9.6681 4.12304,-14.429689 l 16.49024,-2.060547 v -4.123047 c -4.90587,-0.70084 -9.66811,-1.382273 -14.42969,-2.0625 -1.40169,-5.606721 -2.76064,-11.048418 -4.12109,-16.490235 z m 158.71875,16.490235 c -1.58783,7.189983 -1.58634,7.190611 -4.1211,14.429683 -5.16062,1.7202 -9.62245,3.6971 -14.42968,6.1836 7.18998,1.58782 7.19059,1.58828 14.42968,4.12305 1.7202,5.16061 3.69711,9.62246 6.1836,14.42968 1.68035,-6.44132 2.27699,-11.13908 7.98633,-14.94531 4.38026,-1.54597 4.37983,-1.54538 12.625,-5.66797 -2.36533,-0.48183 -4.6593,-0.95032 -6.95508,-1.41797 -7.76862,-1.863 -7.76873,-1.86173 -10.17774,-7.85742 -1.41714,-5.15323 -1.41843,-5.154755 -5.54101,-9.277343 z M 440.19141,155.21094 c -1.40167,5.60672 -2.7626,11.04841 -4.12305,16.49023 -4.22726,0.93939 -8.45438,1.87897 -12.68164,2.81836 -3.80857,1.30442 -3.80784,1.30515 -5.86914,5.42774 7.69554,1.48945 14.56042,1.49218 19.32422,7.98828 1.28833,4.38026 1.28757,4.37983 5.41015,12.625 1.81311,-6.41721 1.81407,-6.41816 3.71289,-10.80664 3.15714,-4.62771 5.88593,-5.71484 11.10352,-7.61719 2.67196,-0.74464 5.26601,-1.46671 7.85937,-2.18945 v -4.12305 c -5.46636,-0.69572 -12.43313,-0.0659 -16.49023,-4.12305 -1.29424,-4.83182 -2.67002,-9.64127 -4.12305,-14.42773 -1.40167,-0.70083 -2.76258,-1.38227 -4.12304,-2.0625 z m 366.91015,28.85937 c -0.70084,5.60673 -1.38031,11.04843 -2.06054,16.49024 -4.82986,0.5269 -9.64425,1.22098 -14.42969,2.06054 -0.70085,1.40168 -1.38032,2.76259 -2.06055,4.12305 7.18566,0.94641 7.18434,0.94687 14.42774,4.12305 1.00746,2.54053 1.98701,5.00488 2.96484,7.4707 0.39423,2.36534 0.77557,4.66127 1.1582,6.95703 h 2.0625 c 2.64736,-7.20845 2.64708,-7.20713 6.1836,-14.42773 5.16062,-1.7202 9.62049,-3.69711 14.42773,-6.1836 -4.90588,-1.40167 -9.66614,-2.76258 -14.42773,-4.12304 -1.40168,-5.60671 -2.76259,-11.04843 -4.12305,-16.49024 z m -183.45508,2.06055 c -2.80337,9.81176 -5.52323,19.33423 -8.24414,28.85742 -14.57335,3.12286 -14.57461,3.12454 -28.85937,6.18555 v 4.12109 c 1.76578,0.38601 3.47951,0.76206 5.19336,1.13672 2.30784,0.53384 4.5491,1.05217 6.78906,1.57031 6.67271,1.39779 6.67236,1.39592 12.75391,3.47657 4.89696,3.45728 5.97585,5.41252 7.54492,11.2246 0.78786,5.24734 1.51362,10.41347 2.76172,15.57227 1.40167,0.70083 2.76258,1.38228 4.12304,2.0625 0.386,-1.61248 0.76011,-3.17714 1.13477,-4.74219 0.53384,-2.11073 1.05216,-4.16033 1.57031,-6.20898 1.40675,-6.11642 1.40685,-6.11546 3.47852,-11.72266 3.62739,-5.20855 6.07502,-6.14905 12.19726,-8.14062 3.40344,-0.76851 3.4042,-0.76818 6.74024,-1.52149 l 6.78711,-1.57031 c 1.76579,-0.38601 3.47951,-0.76206 5.19336,-1.13672 -1.04096,-2.0819 -1.04021,-2.0804 -2.06055,-4.12109 -4.01091,-0.75429 -8.05603,-1.32841 -12.10938,-1.80469 -6.6165,-0.58714 -6.61802,-0.58653 -12.62695,-2.31836 -4.40393,-4.24565 -5.9381,-6.97182 -7.09375,-12.96484 -0.40246,-7.76351 0.406,-12.27563 -5.27344,-17.95508 z m -113.37109,49.4707 c -1.48044,9.69897 -3.3804,18.21762 -8.24414,26.79688 -7.1839,3.48094 -13.34156,4.68793 -21.22656,5.77344 -1.89446,0.13961 -3.73159,0.27464 -5.57031,0.41015 v 4.12305 c 1.96837,0.41064 3.87858,0.81042 5.78906,1.20898 2.54328,0.55302 5.01199,1.08826 7.48047,1.625 4.5428,0.9703 9.06529,2.05781 13.52734,3.34961 2.49318,4.60098 2.49162,4.60221 3.99219,12.11133 1.46545,6.06014 3.14688,11.32127 6.3125,16.74805 1.76319,-7.86652 3.86174,-15.56308 6.05664,-23.31836 9.38983,-8.27736 9.38841,-8.27831 22.18164,-10.80664 1.61248,-0.31209 3.17909,-0.61506 4.74414,-0.91797 v -4.12305 c -1.45916,-0.23269 -2.87672,-0.45773 -4.29297,-0.68359 -1.91364,-0.33673 -3.76963,-0.66341 -5.62695,-0.99024 -5.55121,-0.82353 -5.55159,-0.823 -10.69336,-2.44726 -4.50544,-3.30399 -5.93016,-5.34093 -7.54492,-10.70117 -1.28641,-7.58102 -1.31855,-12.59198 -6.88477,-18.15821 z m 197.88477,53.59375 c -1.31115,6.63772 -2.85877,12.6287 -6.1836,18.55274 -4.02304,2.33663 -4.02418,2.33655 -8.63281,3.2207 -2.67196,0.30661 -5.26406,0.60279 -7.85742,0.90039 v 2.0625 c 4.85362,1.518 9.4789,3.29208 14.14648,5.31445 5.28834,3.51912 6.18754,5.59575 7.625,11.69141 0.30662,2.62815 0.60475,5.17767 0.90235,7.72852 h 4.12304 c 1.40169,-6.30757 2.76066,-12.42875 4.1211,-18.55079 7.46969,-1.93659 13.01701,-2.71037 18.55273,-8.24609 -4.80659,-1.12747 -9.47067,-2.46687 -14.16406,-4.00195 -5.08191,-1.96014 -5.08206,-1.95949 -7.35156,-8.49414 -1.15948,-6.05505 -1.15867,-6.05515 -5.28125,-10.17774 z M 429.88477,301.5625 c -1.40168,5.60673 -2.76259,11.05036 -4.12305,16.49219 -7.26221,0.94724 -11.20207,0.89542 -16.49024,6.18359 5.60672,0.70085 11.04843,1.38033 16.49024,2.06055 1.40169,6.30756 2.7626,12.43069 4.12305,18.55273 h 2.0625 c 1.58058,-7.11262 1.84665,-12.8883 8.11523,-17.13476 4.25142,-1.41714 4.25166,-1.41844 10.43555,-5.54102 -4.90588,-0.70085 -9.66811,-1.38033 -14.42969,-2.06055 -1.0265,-7.69868 -1.80317,-11.98209 -6.18359,-18.55273 z m 175.21093,61.83984 c -1.48636,7.72913 -1.6029,11.94637 -6.08399,18.45118 -4.10094,1.38622 -2.06522,2.91152 -6.59594,3.32893 -2.67196,0.0876 -9.46304,0.80862 -12.05639,0.89372 v 4.12305 c 4.79254,0.57195 9.4466,1.38202 14.16406,2.4082 5.08959,1.4187 5.08974,1.41812 7.35156,7.76953 1.15948,6.31272 1.15866,6.31223 5.28125,12.4961 1.6669,-7.37285 1.66606,-7.37304 3.57422,-12.40821 7.10937,-7.11858 7.10999,-7.11753 17.32031,-9.49218 1.30586,-0.26281 2.57435,-0.51836 3.8418,-0.77344 v -4.12305 c -5.60671,-0.70085 -11.04843,-1.38032 -16.49024,-2.06055 -0.60994,-1.74847 -0.61114,-1.74904 -1.20898,-3.46289 -0.82139,-2.28522 -0.82184,-2.28542 -1.62695,-4.52539 -2.00783,-5.65842 -3.14646,-8.30076 -7.47071,-12.625 z M 87.710938,474.71289 c -1.401689,4.90589 -2.762604,9.66614 -4.123047,14.42773 -1.664503,-0.0876 -3.280939,-0.17271 -4.896485,-0.25781 -5.410896,0.25767 -5.410616,0.25827 -9.533203,4.38086 2.014918,0.39422 3.970121,0.77754 5.925781,1.16016 7.232492,2.41482 7.234017,2.41506 9.277344,10.43555 0.43803,2.36532 0.86197,4.66126 1.28711,6.95703 h 4.123046 c 0.700844,-4.90589 1.380319,-9.6681 2.060547,-14.42969 6.037097,-1.29367 11.050399,-3.2694 16.490239,-6.1836 -6.04873,-0.54946 -6.04816,-0.55067 -12.367192,-2.0625 -4.024848,-5.78549 -4.024701,-5.78392 -6.441406,-10.6914 -0.61323,-1.27027 -1.207544,-2.50342 -1.802734,-3.73633 z M 291.7793,738.55859 c -0.17521,2.01492 -0.34557,3.97013 -0.51563,5.92579 -0.81361,6.55024 -0.81474,6.54965 -5.2832,9.01757 -4.48852,1.53893 -8.51766,3.54985 -12.75391,5.66797 5.60673,1.40169 11.04843,2.7626 16.49024,4.12305 0.70085,4.90588 1.38228,9.66811 2.0625,14.42969 h 4.12109 c 1.70446,-6.53376 2.26594,-11.17033 8.11719,-14.94532 4.25142,-1.54597 4.25167,-1.54538 10.43554,-5.66796 -7.18564,-0.94642 -7.18628,-0.94687 -14.42968,-4.12305 -1.00747,-2.54054 -1.98506,-5.00488 -2.96289,-7.47071 -0.39422,-2.36533 -0.77753,-4.66126 -1.16016,-6.95703 z m 181.39258,47.40821 c -0.94642,7.18566 -0.94688,7.18628 -4.12305,14.42968 -2.54055,1.00745 -5.00488,1.98506 -7.47071,2.9629 l -6.95703,1.16015 v 4.12305 c 7.18565,0.94641 7.18434,0.94491 14.42774,4.12109 1.00747,2.54054 1.98701,5.00683 2.96484,7.47266 0.39422,2.36533 0.77557,4.66127 1.15821,6.95703 h 2.0625 c 1.93912,-6.52091 1.93796,-6.52169 3.84765,-10.94336 2.44009,-4.36218 2.43956,-4.36181 9.93555,-6.44922 2.32153,-0.39422 4.57487,-0.77558 6.82812,-1.1582 v -4.12305 c -4.90588,-0.70084 -9.66613,-1.38227 -14.42773,-2.0625 -2.066,-6.78832 -3.16955,-11.41371 -8.24609,-16.49023 z"
     sodipodi:nodetypes="cccccccccccccccccccccccccccccccccccccccccccccccccccccccccccccccccccccccccccccccccccccccccccccccccccccccccccccccccccccccccccccccccccccccccccccccccccccccccccccccccccccccccc" />
  <path
     d="m 380.41401,188.19227 c 0.68023,0 1.36046,0 2.0613,0 0,14.96499 0,29.92999 0,45.34847 -3.40114,0 -6.80228,0 -10.30647,0 -0.68023,2.72091 -1.36046,5.44182 -2.0613,8.24517 -17.18048,-2.62074 -30.46966,-9.95091 -45.34847,-18.55164 1.36045,-2.72091 2.72091,-5.44182 4.12259,-8.24517 -2.04069,-1.36046 -4.08136,-2.72092 -6.18388,-4.12259 0.68022,-1.36046 1.36044,-2.72091 2.06129,-4.12259 3.1766,1.64211 3.1766,1.64211 6.41739,3.31738 16.14274,8.25873 31.99075,15.66921 49.23755,21.41815 0,-14.28477 0,-28.56954 0,-43.28718 z"
     fill="#52b9d9"
     id="path32"
     style="stroke-width:2.0613" />
  <path
     d="m 930.77956,482.95734 c 4.75298,8.91532 7.00856,18.09475 9.53349,27.82747 0.47297,1.76168 0.94594,3.52337 1.43325,5.33843 0.44639,1.70322 0.89279,3.40645 1.35272,5.16129 0.40554,1.54512 0.81109,3.09025 1.22892,4.6822 0.88069,4.40038 0.88069,4.40038 0.88069,12.64555 -2.04069,-0.68022 -4.08137,-1.36045 -6.18389,-2.0613 -1.84902,-5.94285 -3.2734,-11.5772 -4.50909,-17.64982 -0.54802,-2.43328 -0.54802,-2.43328 -1.10713,-4.9157 -2.25278,-10.55062 -2.98709,-20.24716 -2.62896,-31.02812 z"
     fill="#18677c"
     id="path49"
     style="stroke-width:2.0613" />
  <path
     d="m 213.44918,470.58958 c 4.08137,2.04068 4.08137,2.04068 8.24518,4.12258 0,8.16273 0,16.32546 0,24.73553 -2.7209,0 -5.44182,0 -8.24518,0 0,-9.52318 0,-19.04635 0,-28.85811 z"
     fill="#f58d29"
     id="path53"
     style="stroke-width:2.0613" />
  <path
     d="m 714.34368,769.47724 c -3.07334,7.82304 -7.74431,11.56474 -14.42907,16.49035 -0.68023,-2.04069 -1.36046,-4.08136 -2.06129,-6.18389 -1.36045,-1.36044 -2.72091,-2.7209 -4.12258,-4.12259 5.57504,-7.87065 11.58627,-6.69482 20.61294,-6.18387 z"
     fill="#4cbcdf"
     id="path56"
     style="stroke-width:2.0613" />
  <path
     d="m 407.21084,864.29677 c 5.44181,0.68023 10.88363,1.36044 16.49035,2.06129 -0.68023,2.04068 -1.36045,4.08137 -2.0613,6.18389 -3.99375,1.54597 -3.99375,1.54597 -8.24517,2.06128 -1.36046,-0.68022 -2.7209,-1.36045 -4.12259,-2.06128 -1.28831,-4.25142 -1.28831,-4.25142 -2.06129,-8.24518 z"
     fill="#4fbde2"
     id="path65"
     style="stroke-width:2.0613" />
  <path
     d="m 269.10412,505.63158 c 1.36046,1.36044 2.72092,2.7209 4.12259,4.12259 -0.68023,1.36045 -1.36045,2.7209 -2.06129,4.12259 1.36045,0 2.7209,0 4.12259,0 -2.0613,6.18387 -2.0613,6.18387 -10.30647,10.30646 1.36045,-6.12204 2.72091,-12.24408 4.12258,-18.55164 z"
     fill="#e7cb3f"
     id="path71"
     style="stroke-width:2.0613" />
  <path
     d="m 333.00424,303.62474 c -3.07333,7.82306 -7.7443,11.56475 -14.42906,16.49036 1.14579,-8.02048 5.48054,-16.49036 14.42906,-16.49036 z"
     fill="#166e82"
     id="path72"
     style="stroke-width:2.0613" />
  <path
     d="m 213.44918,470.58958 c 4.08137,2.04068 4.08137,2.04068 8.24518,4.12258 -2.012,6.03598 -4.34493,9.51136 -8.24518,14.42907 0,-6.12206 0,-12.2441 0,-18.55165 z"
     fill="#ca945a"
     id="path74"
     style="stroke-width:2.0613" />
  <path
     d="m 176.34589,447.91534 c 0,1.36045 0,2.72091 0,4.12258 -3.60727,2.31897 -3.60727,2.31897 -8.24518,4.12259 -4.63791,-1.80362 -4.63791,-1.80362 -8.24517,-4.12259 6.65368,-4.43579 8.83059,-4.53663 16.49035,-4.12258 z"
     fill="#d5904e"
     id="path76"
     style="stroke-width:2.0613" />
</svg>
