<?xml version="1.0" encoding="UTF-8" standalone="no"?>
<svg
   version="1.1"
   width="1024"
   height="1024"
   id="svg90"
   sodipodi:docname="logo.svg"
   inkscape:version="1.4 (e7c3feb1, 2024-10-09)"
   xmlns:inkscape="http://www.inkscape.org/namespaces/inkscape"
   xmlns:sodipodi="http://sodipodi.sourceforge.net/DTD/sodipodi-0.dtd"
   xmlns="http://www.w3.org/2000/svg"
   xmlns:svg="http://www.w3.org/2000/svg">
  <defs
     id="defs90" />
  <sodipodi:namedview
     id="namedview90"
     pagecolor="#ffffff"
     bordercolor="#000000"
     borderopacity="0.25"
     inkscape:showpageshadow="2"
     inkscape:pageopacity="0.0"
     inkscape:pagecheckerboard="0"
     inkscape:deskcolor="#d1d1d1"
     inkscape:zoom="0.4171373"
     inkscape:cx="306.85341"
     inkscape:cy="600.52171"
     inkscape:window-width="1512"
     inkscape:window-height="842"
     inkscape:window-x="0"
     inkscape:window-y="34"
     inkscape:window-maximized="1"
     inkscape:current-layer="svg90" />
  <path
     d="m 492.96923,64.892331 c 103.73286,-3.922889 197.7113,21.965614 283.38143,82.223789 34.05575,24.75936 131.4176,99.46741 171.64764,237.03721 4.04098,13.67768 6.82552,24.11916 10.21712,38.82505 0.34341,1.45139 0.68684,2.90279 1.04065,4.39816 11.51245,51.25124 8.97229,111.90987 -1.04065,163.16263 -0.56756,3.0916 -1.13431,6.18334 -1.70019,9.27523 -3.50758,18.6086 -3.50758,18.6086 -6.47351,27.5064 -0.62457,10.82582 0.53532,20.93456 2.04342,31.67308 3.99484,29.0929 3.99484,29.0929 -1.30109,36.09517 -6.05877,4.70682 -9.89352,4.60408 -17.47286,5.15646 -6.88923,1.39325 -11.99795,2.44704 -16.65173,7.96118 -5.34112,8.59148 -9.33796,17.8618 -13.51072,27.05939 -15.04239,31.09736 -41.77524,59.27212 -65.49535,84.1366 l -4.94893,5.27619 c -13.57043,14.08044 -28.52091,25.89265 -44.09325,37.63572 -1.89656,1.45401 -3.79311,2.90806 -5.74712,4.40614 -52.25995,39.19495 -115.45178,66.90332 -179.72854,78.54511 -3.03429,0.55138 -6.06317,1.13332 -9.08566,1.74609 -28.01968,5.58708 -56.15882,5.85867 -84.62151,5.97961 -1.85076,0.0163 -3.70154,0.0321 -5.60838,0.0486 -46.89791,0.31611 -90.62349,-7.70088 -134.87703,-23.00522 -6.98328,-2.19733 -13.75274,-3.68964 -20.9451,-5.01278 -59.45763,-12.1451 -114.68323,-45.68065 -158.10994,-87.22868 -1.77276,-1.61996 -3.54551,-3.23994 -5.37199,-4.90899 -31.2265,-29.5386 -51.85711,-66.05788 -65.46139,-106.50552 -2.94203,-7.65612 -6.63714,-14.66375 -10.64816,-21.7912 -8.988103,-16.09391 -15.178846,-32.86942 -21.15363,-50.27243 -1.383749,-3.95717 -2.874018,-7.87676 -4.381202,-11.78859 -9.607883,-25.89039 -13.458242,-53.39436 -17.63251,-80.59553 -0.236258,-1.51904 -0.472492,-3.0381 -0.715894,-4.60318 -5.953965,-44.695 -2.908795,-92.61513 6.846168,-136.39309 0.772092,-3.71957 1.543687,-7.43923 2.31481,-11.15901 C 90.989552,328.92848 130.93817,261.96651 187.36358,202.57691 265.67311,120.22809 378.36448,65.988817 492.96923,64.892236 Z"
     fill="#245385"
     id="path2"
     sodipodi:nodetypes="scccccccccccccccccccccccccccccccccss"
     style="stroke-width:2.04342" />
  <path
     d="m 786.56779,378.02315 c 3.55234,24.45553 5.89094,48.95102 8.04598,73.56327 0.70699,7.97977 1.41848,15.95914 2.13123,23.93838 0.17532,1.96768 0.35053,3.93534 0.53112,5.96264 1.08351,12.09446 2.22791,24.18098 3.44397,36.26283 0.21767,2.17493 0.21767,2.17493 0.43975,4.39383 0.66396,6.61886 1.33975,13.23614 2.03421,19.85187 1.43279,14.19711 2.0888,28.14444 1.76455,42.41302 -1.25251,0.69771 -2.50503,1.39541 -3.7955,2.11428 -36.07776,20.1369 -71.31963,40.65694 -104.50598,65.31872 -1.15143,0.85379 -2.30286,1.70754 -3.48918,2.5872 -13.52212,10.07857 -26.49981,20.56692 -38.90387,32.0153 -4.08728,3.74727 -8.27045,7.30888 -12.52397,10.86368 -7.72382,6.70878 -14.64508,14.08171 -21.58367,21.58368 -1.08888,1.17678 -2.17774,2.35357 -3.29962,3.56602 -5.69729,6.12056 -5.69729,6.12056 -10.11035,13.16452 -1.34866,0 -2.69732,0 -4.08684,0 -0.38282,-29.75308 -0.67062,-59.50581 -0.84701,-89.26084 -0.0842,-13.81766 -0.19862,-27.6338 -0.38625,-41.45048 -0.18105,-13.34204 -0.27545,-26.68309 -0.31775,-40.02631 -0.03,-5.08217 -0.0888,-10.16427 -0.17736,-15.24578 -0.11935,-7.13761 -0.13508,-14.26874 -0.12752,-21.4072 -0.0589,-2.08567 -0.11746,-4.17136 -0.17819,-6.32024 0.19311,-16.94362 7.04616,-25.55125 18.38134,-37.63033 2.0604,-2.4978 4.10781,-5.00651 6.13027,-7.53513 6.8172,-7.83794 14.53484,-14.40676 22.47768,-21.07281 1.78854,-1.55939 3.57711,-3.11878 5.41984,-4.72542 32.45811,-27.88347 89.41431,-72.9247 133.53299,-72.9247 z"
     fill="#fbfbfc"
     id="path3"
     style="stroke-width:2.04342" />
  <path
     d="m 136.75889,533.32339 c 0.67433,0 1.34867,0 2.04342,0 3.61991,14.26245 7.10118,28.53055 10.21713,42.91191 1.67529,-0.71385 3.35058,-1.42769 5.07662,-2.16316 3.30318,-1.39476 3.30318,-1.39476 6.67307,-2.8177 2.18103,-0.92456 4.36208,-1.84913 6.60918,-2.80171 4.81638,-1.90285 9.28852,-3.41216 14.33592,-4.47798 -0.29144,3.19347 -0.59108,6.38617 -0.894,9.57855 -0.16592,1.77802 -0.33189,3.55603 -0.50286,5.38794 -0.64657,5.46775 -0.64657,5.46775 -1.68274,10.1777 -10.10856,55.26906 4.63181,118.48341 36.32815,164.58494 36.15589,50.03351 89.02476,87.57233 148.6162,104.52395 1.5179,0.4333 3.0358,0.86662 4.59971,1.31306 5.13868,1.44122 10.28975,2.82203 15.45139,4.17865 2.32205,0.62205 2.32205,0.62205 4.69099,1.25668 29.01421,7.2166 58.66418,8.33083 88.41252,8.19415 1.65301,-0.002 3.306,-0.006 5.00909,-0.0107 22.96288,-0.0758 45.28463,-0.79098 67.77392,-5.86061 4.22041,-0.9252 8.44746,-1.67707 12.70556,-2.40761 72.71885,-13.25275 153.59846,-55.61976 201.86797,-112.92215 0.64798,-1.23803 1.29598,-2.47606 1.9636,-3.7516 4.03919,-7.65834 7.02168,-10.10719 15.36559,-13.12261 8.44341,-2.2909 16.98576,-4.00223 25.58271,-5.60345 2.35488,-0.46099 4.70976,-0.92194 7.13603,-1.39687 5.10608,-0.96156 10.21215,-1.86405 15.34164,-2.68999 -4.83348,14.21302 -15.22035,25.24461 -24.5211,36.78164 -0.91106,1.13036 -1.82214,2.26072 -2.7608,3.42533 -20.77108,25.56615 -43.17557,47.89651 -69.55727,67.6605 -2.8923,2.17887 -5.74402,4.41143 -8.58875,6.65209 -29.76449,22.84142 -63.88637,39.93378 -98.9145,53.04123 -1.49683,0.56272 -2.99366,1.12542 -4.53585,1.70517 -102.59745,37.87482 -221.95123,39.39914 -322.41203,-5.79197 -47.58791,-22.00899 -90.51656,-52.08065 -122.60544,-93.99751 -1.38555,-1.73851 -2.77107,-3.47701 -4.19861,-5.26819 -30.08944,-39.10458 -49.57647,-92.50316 -50.97385,-141.85836 -0.0635,-1.54983 -0.1271,-3.09966 -0.19249,-4.69648 -1.42642,-37.53911 2.59885,-74.58586 16.53997,-109.73527 z"
     fill="#82c2e8"
     id="path4"
     style="stroke-width:2.04342" />
  <path
     d="m 406.49089,378.02315 c 69.49208,17.54006 134.18831,63.50098 179.06144,118.5102 4.27701,9.36576 3.60492,18.31885 3.49926,28.4951 10e-4,3.38051 10e-4,3.38051 0.002,6.82929 -0.004,7.44133 -0.0519,14.88175 -0.0999,22.32294 -0.0123,5.16238 -0.0205,10.32477 -0.0264,15.48717 -0.0211,12.19415 -0.0693,24.38792 -0.13098,36.58193 -0.0686,13.88631 -0.1022,27.77265 -0.13303,41.65909 -0.064,28.55687 -0.17165,57.11346 -0.30844,85.67008 -2.29057,-1.93673 -4.57738,-3.87792 -6.86263,-5.82096 -1.27387,-1.08052 -2.54774,-2.16103 -3.86024,-3.27429 -4.49842,-3.9761 -8.37335,-8.30499 -12.26564,-12.87156 -18.08325,-20.4008 -39.1309,-37.24146 -60.79188,-53.63988 -1.33416,-1.01907 -2.66834,-2.03813 -4.04295,-3.08808 -35.3109,-26.82172 -73.79348,-48.84027 -112.43222,-70.47519 -0.92819,-20.83242 0.96527,-40.87231 3.51414,-61.5352 2.33303,-19.13798 4.15724,-38.2883 5.80898,-57.49426 0.12771,-1.47754 0.25563,-2.9551 0.38731,-4.4774 0.62527,-7.23097 1.24611,-14.46228 1.86264,-21.69399 0.97768,-11.45663 1.97144,-22.91165 2.98632,-34.36505 0.15428,-1.80765 0.30852,-3.61531 0.46746,-5.47772 0.1461,-1.64304 0.29205,-3.28606 0.4425,-4.97887 0.18228,-2.09755 0.18228,-2.09755 0.36818,-4.23751 0.53623,-4.15649 1.45999,-8.08321 2.55328,-12.12584 z"
     fill="#fcfcfc"
     id="path5"
     style="stroke-width:2.04342" />
  <path
     d="m 294.10256,208.41894 c 7.12252,3.10384 12.10163,7.36573 17.87996,12.51598 21.04141,17.42227 45.74677,27.64177 72.0307,34.48278 -3.07733,65.3934 -39.89706,121.80941 -83.78039,167.56078 -1.52514,1.60944 -3.05028,3.21886 -4.62165,4.87708 -18.64882,19.23502 -18.64882,19.23502 -28.07313,23.73086 -8.46323,-0.5568 -14.80178,-4.17177 -22.09453,-8.30141 -1.99401,-1.1195 -3.98802,-2.23898 -6.04247,-3.39241 -1.50408,-0.86135 -3.00815,-1.72269 -4.55779,-2.61015 4.35728,-22.51214 -7.07933,-23.96574 -12.26055,-10.21712 -8.29156,-1.24071 -14.61526,-3.92458 -21.9668,-7.91827 -1.97032,-1.04838 -3.94063,-2.09673 -5.97065,-3.17689 -4.75733,-3.20881 -4.75733,-3.20881 -6.80076,-9.33908 4.34007,-71.09443 39.6039,-140.58047 91.95409,-187.99503 4.65957,-3.71145 9.29194,-6.98714 14.30397,-10.21712 z"
     fill="#fbfbfa"
     id="path6"
     style="stroke-width:2.04342"
     sodipodi:nodetypes="ccccccccccccccc" />
  <path
     d="m 136.75889,533.32339 c 0.67433,0 1.34867,0 2.04342,0 0.37142,1.55676 0.74283,3.1135 1.12548,4.71743 2.42904,9.97777 4.85002,19.67823 8.5808,29.2545 2.23586,6.51273 2.67716,11.14115 1.73212,17.94381 -8.33547,71.70087 6.84803,140.25893 51.65783,197.59203 42.31838,52.11278 100.23192,85.93944 164.61787,103.49376 1.38437,0.38161 2.76878,0.76323 4.1951,1.15641 30.7792,7.85086 61.47204,10.58675 93.15589,10.37076 5.69727,-0.0329 11.39156,-10e-5 17.08874,0.0388 36.61051,0.0416 72.38719,-4.19395 107.3995,-15.1421 1.83136,-0.5614 3.66271,-1.12279 5.54957,-1.70119 25.14298,-7.7753 49.30224,-16.14692 72.37294,-28.89829 3.92106,-2.15388 7.8811,-4.2185 11.85245,-6.27796 31.33677,-16.55999 58.47755,-38.72448 83.91609,-63.25025 1.33024,-1.24857 2.66044,-2.49713 4.03099,-3.78352 11.77488,-11.31892 23.06417,-24.10203 31.76885,-37.93106 4.37607,-6.93614 6.92559,-10.67424 14.90263,-13.32216 5.59471,-1.03475 11.05808,-1.77539 16.73054,-2.17914 -4.83348,14.21302 -15.22035,25.24461 -24.5211,36.78164 -0.91106,1.13036 -1.82214,2.26072 -2.7608,3.42533 -20.77108,25.56615 -43.17557,47.89651 -69.55727,67.6605 -2.8923,2.17887 -5.74402,4.41144 -8.58875,6.65209 -29.76449,22.84142 -63.88637,39.93378 -98.9145,53.04123 -1.49683,0.56272 -2.99366,1.12542 -4.53585,1.70517 -102.59745,37.87478 -221.95123,39.39909 -322.41203,-5.79202 -47.58791,-22.00899 -90.51656,-52.08065 -122.60544,-93.99751 -1.38555,-1.73851 -2.77107,-3.47701 -4.19861,-5.26819 -30.08944,-39.10458 -49.57647,-92.50316 -50.97385,-141.85835 -0.0635,-1.54984 -0.1271,-3.09967 -0.19249,-4.69649 -1.42642,-37.53911 2.59885,-74.58586 16.53997,-109.73527 z"
     fill="#f8f9f9"
     id="path7"
     style="stroke-width:2.04342" />
  <path
     d="m 903.04296,461.80355 c 6.37265,32.81397 12.01144,65.64506 16.77993,98.72641 2.31191,15.82165 5.08976,31.45229 8.30789,47.11399 2.30498,11.57631 4.15475,23.20987 5.94669,34.87492 0.3622,2.25874 0.72437,4.51748 1.09755,6.84467 0.34111,2.20606 0.68223,4.41213 1.03368,6.68503 0.45513,2.91768 0.45513,2.91768 0.91944,5.89429 0.7937,7.592 0.75418,14.96199 0.65303,22.59391 -32.69367,8.23129 -65.42647,16.28107 -98.21207,24.13795 -2.18446,0.52439 -4.3689,1.04879 -6.61955,1.58908 -28.15713,6.75663 -56.33691,13.40157 -84.56166,19.87006 -4.92789,1.13256 -9.85355,2.27438 -14.7785,3.41966 -3.12996,0.72709 -6.25996,1.45396 -9.38999,2.18061 -1.49152,0.34636 -2.98303,0.69275 -4.51975,1.04961 -9.33297,2.15491 -18.68686,4.1749 -28.06328,6.1343 -4.41425,0.9732 -8.8284,1.94698 -13.24235,2.92146 -1.8982,0.36055 -3.7964,0.72109 -5.75212,1.09256 -13.08779,2.98605 -19.29832,8.56544 -27.48097,19.13464 -5.57685,6.51378 -12.09311,9.55771 -20.02365,12.46759 -2.78952,1.09052 -2.78952,1.09052 -5.63538,2.20305 -18.34824,5.21709 -42.6022,4.24019 -59.7542,-4.24648 -16.4355,-10.40059 -16.4355,-10.40059 -20.95209,-19.41702 -4.62651,-6.61643 -7.75181,-7.16197 -15.5342,-8.94348 -2.39308,-0.57044 -4.78618,-1.14088 -7.25177,-1.72861 -2.55111,-0.56486 -5.10225,-1.1297 -7.73068,-1.71167 -5.26554,-1.23457 -10.5311,-2.46914 -15.79664,-3.70372 -2.52708,-0.57685 -5.05418,-1.15373 -7.65785,-1.74807 -7.76256,-1.79146 -15.45564,-3.76594 -23.16113,-5.78705 -17.4113,-4.37158 -34.9862,-7.97697 -52.54583,-11.6978 -20.9734,-4.46333 -41.72458,-9.4763 -62.43669,-15.03433 -3.13667,-0.83926 -6.27366,-1.67735 -9.41093,-2.51438 -1.56761,-0.41833 -3.13525,-0.83665 -4.75037,-1.26766 -21.16738,-5.5725 -42.53268,-10.33271 -63.87944,-15.16155 -4.46866,-1.02941 -8.91866,-2.10802 -13.36258,-3.23875 0.74193,-16.83401 2.70734,-32.62283 6.50542,-49.02622 2.14479,-9.88061 3.32426,-19.87903 4.60569,-29.90103 2.03257,-15.27715 4.12503,-30.53692 6.76885,-45.72161 0.24613,-1.67167 0.49224,-3.34334 0.74583,-5.06566 2.06523,-11.15849 5.86751,-16.54936 14.78939,-23.55028 3.36645,-2.03543 3.36645,-2.03543 7.4533,-2.03543 -2.66434,24.53349 -6.17392,48.83856 -10.21712,73.18013 -0.53818,3.27655 -1.07564,6.5532 -1.61238,9.82999 -2.83677,17.2905 -5.71489,34.57419 -8.60474,51.85587 2.59196,0.5637 5.18392,1.12741 7.85441,1.70818 29.12777,6.48674 57.74518,14.49769 86.09621,23.78375 23.30802,7.57554 46.79554,14.53409 70.2896,21.50683 3.13909,0.93182 3.13909,0.93182 6.34161,1.88247 10.25024,3.04135 20.50177,6.07837 30.75432,9.11191 9.78758,2.89616 19.57216,5.80228 29.35526,8.71349 4.9675,1.47684 9.93505,2.95354 14.90263,4.43008 2.19125,0.65193 4.38249,1.30389 6.64013,1.97558 1.968,0.58343 3.936,1.1669 5.96366,1.76803 1.65734,0.49208 3.31467,0.98418 5.02224,1.49117 4.43366,1.34376 4.43366,1.34376 8.92503,2.11428 3.71716,1.20778 3.71716,1.20778 7.29316,6.95491 6.41028,9.08122 14.40266,13.54768 25.42807,15.46787 4.62461,0.31235 9.14668,0.35454 13.78014,0.24095 1.61683,-0.0247 3.23369,-0.0494 4.89953,-0.0748 15.77086,-0.53659 26.89477,-3.97751 38.30521,-15.11615 8.86405,-7.68616 18.33538,-10.26471 29.50443,-13.27328 4.22227,-1.21011 8.4438,-2.4228 12.66466,-3.63786 2.14089,-0.60477 4.2818,-1.20953 6.48757,-1.83264 9.80277,-2.81729 19.51606,-5.90257 29.23543,-8.99312 3.85403,-1.21483 7.7084,-2.4286 11.56309,-3.64133 1.94252,-0.61184 3.88507,-1.22367 5.88646,-1.85404 35.59307,-11.1995 71.25375,-22.13444 107.04766,-32.67515 1.85873,-0.54743 3.71749,-1.09489 5.63257,-1.65892 10.14851,-2.98515 20.30203,-5.95242 30.46086,-8.90231 4.39549,-1.28002 8.78709,-2.57263 13.17823,-3.86747 2.57418,-0.7517 5.14836,-1.50341 7.80054,-2.27789 2.21759,-0.65144 4.43517,-1.30289 6.71994,-1.97409 5.42885,-1.37047 5.42885,-1.37047 11.55912,-1.37047 -0.54206,-5.2802 -1.09793,-10.55847 -1.66028,-15.83653 -0.21534,-2.11783 -0.21534,-2.11783 -0.43502,-4.27841 -2.07561,-19.26169 -5.18248,-38.39082 -8.12181,-57.53517 -0.29072,-1.89633 -0.58144,-3.7927 -0.88097,-5.74652 -1.81074,-11.79815 -3.63513,-23.59417 -5.46833,-35.38885 -0.93958,-6.0502 -1.8749,-12.10103 -2.81019,-18.15187 -3.92982,-25.56472 -3.92982,-25.56472 -8.58429,-51.0053 -0.64705,-4.13922 -0.64705,-4.13922 -0.64705,-12.31291 5.53522,-2.76762 10.23619,-2.17627 16.34739,-2.04342 z"
     fill="#e7822d"
     id="path8"
     style="stroke-width:2.04342" />
  <path
     d="m 357.44871,422.97848 c 10.33139,1.63942 18.9093,4.32769 28.60794,8.1737 0.38805,18.26081 -0.79032,36.10755 -2.61015,54.27047 -0.27088,2.78087 -0.54085,5.56182 -0.80997,8.34284 -0.5614,5.7758 -1.13048,11.55076 -1.70592,17.32518 -0.73545,7.38234 -1.45578,14.76605 -2.17095,22.15037 -0.55491,5.72058 -1.1154,11.44059 -1.67779,17.16044 -0.39686,4.03958 -0.79093,8.0794 -1.18494,12.11926 -0.24532,2.45654 -0.49063,4.91309 -0.74336,7.4441 -0.21328,2.15402 -0.42655,4.30805 -0.64627,6.52736 -0.65948,5.44618 -1.59588,10.73073 -2.75462,16.09049 1.28807,0.47413 2.57615,0.94827 3.90326,1.43677 59.13153,24.8188 114.12537,64.13734 161.61409,106.86471 1.2186,1.09249 2.4372,2.18499 3.69274,3.31059 3.67808,3.30959 7.34051,6.63534 10.99438,9.97167 1.10599,1.00655 2.21198,2.01311 3.3515,3.05017 5.50992,5.09788 10.40323,10.16565 14.65618,16.36235 -7.22969,-3.36343 -13.66287,-7.60821 -20.30653,-12.00511 -61.06168,-39.56803 -126.7826,-69.57951 -194.25302,-96.29636 -4.07156,-1.62663 -8.14255,-3.25476 -12.21264,-4.88508 -2.41267,-0.96507 -2.41267,-0.96507 -4.8741,-1.94963 -1.10467,-0.44186 -2.20935,-0.88374 -3.3475,-1.33899 1.17767,-21.25513 3.25571,-42.23856 6.00256,-63.34615 0.3507,-2.75107 0.70059,-5.50224 1.04965,-8.25351 1.6815,-13.20149 3.42398,-26.3943 5.20035,-39.58338 2.2795,-17.02963 4.34418,-34.08299 6.39369,-51.14147 0.37499,-3.10907 0.75014,-6.2181 1.12548,-9.32711 0.90396,-7.49098 1.80563,-14.98226 2.70594,-22.47368 z"
     fill="#f7f9f9"
     id="path9"
     style="stroke-width:2.04342" />
  <path
     d="m 835.60997,422.97848 c 15.37187,143.14219 22.9626,163.72606 22.47767,194.1253 -1.58072,0.58229 -1.58072,0.58229 -3.19334,1.17636 -78.51398,29.06648 -154.69778,64.01704 -223.2426,112.34544 -4.10737,2.71318 -8.19373,4.95103 -12.64469,7.04023 3.35921,-4.22301 67.72634,-80.56105 198.21214,-145.08312 1.10062,-57.62265 -10.61112,-99.64469 -10.21712,-161.43051 18.47966,-8.1737 18.47966,-8.1737 28.60794,-8.1737 z"
     fill="#f8f9f9"
     id="path10"
     style="stroke-width:2.04342"
     sodipodi:nodetypes="cccccccc" />
  <path
     d="m 870.34818,449.543 c 5.03075,25.2099 9.53746,50.49012 13.6654,75.86212 0.22116,1.34308 0.44232,2.68616 0.67018,4.06995 2.3959,14.5887 4.43188,29.07318 5.62723,43.80882 0.69995,7.41586 2.01263,14.66944 3.40886,21.9808 7.61161,41.59056 7.61161,41.59056 7.27969,58.62072 -36.46915,11.77691 -36.46915,11.77691 -54.15074,16.34739 -13.15058,3.40734 -26.03647,7.40491 -38.96076,11.5691 -9.80559,3.1388 -19.63715,6.04902 -29.56878,8.76088 -44.42253,12.19087 -89.1097,26.80283 -130.98369,46.07581 -3.94931,1.80522 -7.95955,3.47628 -11.98117,5.11406 -1.34866,-0.67433 -2.69732,-1.34865 -4.08685,-2.04342 184.51011,-114.43175 184.51011,-114.43175 241.12405,-114.43175 -0.2262,-1.70494 -0.45241,-3.40984 -0.68547,-5.16644 -7.64852,-57.86145 -7.64852,-57.86145 -10.09639,-84.67888 -1.16389,-12.31525 -2.93005,-24.49328 -4.79924,-36.71927 -2.41513,-15.88228 -3.61578,-31.03492 -2.80972,-47.12647 5.98366,-1.99455 10.12748,-2.21153 16.3474,-2.04342 z"
     fill="#f6f8f8"
     id="path11"
     style="stroke-width:2.04342" />
  <path
     d="m 334.97104,482.23778 c 0.67434,0 1.34866,0 2.04343,0 -1.2937,19.19895 -3.73775,38.17836 -6.33215,57.23321 -3.88197,28.55505 -7.54215,57.08896 -10.01525,85.80649 2.42602,0.76125 4.85201,1.52251 7.35155,2.30683 13.79595,4.60762 27.14767,10.30888 40.54121,15.95627 1.3866,0.58296 2.77321,1.16591 4.20183,1.76653 25.65521,10.80174 51.0158,22.17073 76.18016,34.07521 6.79831,3.20877 13.61484,6.37669 20.43227,9.54463 31.21599,14.6341 60.92059,30.83366 90.37361,48.73886 -6.85632,2.28545 -7.68699,1.9698 -14.03258,-0.61463 -1.6114,-0.6391 -3.22283,-1.2782 -4.88307,-1.93668 -1.7655,-0.71744 -3.53099,-1.43491 -5.35,-2.17411 -20.69881,-8.15862 -41.62166,-15.51658 -62.67665,-22.69817 -11.79493,-4.02394 -23.56438,-8.08246 -35.26404,-12.37529 -19.7443,-7.2158 -39.93044,-12.70317 -60.19321,-18.2631 -10.37324,-2.84796 -20.65461,-5.91641 -30.91479,-9.14753 -18.73433,-5.75816 -37.59432,-11.11192 -56.41765,-16.57089 3.39425,-25.50841 7.65189,-50.87713 11.91582,-76.25174 0.8299,-4.95829 1.65197,-9.91786 2.46648,-14.87868 1.18829,-7.23536 2.4002,-14.46639 3.61739,-21.69692 0.35782,-2.20541 0.71564,-4.41079 1.0843,-6.68301 2.51897,-14.74151 5.28262,-28.08785 15.78194,-39.36587 3.85663,-4.20013 6.88974,-7.97193 10.0894,-12.77141 z"
     fill="#f8f9f9"
     id="path12"
     style="stroke-width:2.04342" />
  <path
     d="m 739.68178,221.43629 c 11.30638,8.06478 22.09801,16.70068 32.58204,25.80771 1.89129,1.61733 3.78258,3.23468 5.73117,4.90103 13.25438,11.63887 24.27872,24.15056 35.13731,38.01088 1.97164,2.27587 1.97164,2.27587 3.98309,4.5977 32.27134,37.70445 57.35726,91.03857 63.44991,140.48542 -7.41763,0 -14.83526,0 -22.47766,0 -0.59529,-2.57089 -1.1906,-5.14177 -1.80396,-7.79056 -11.46449,-48.40774 -29.44526,-92.46648 -61.54219,-131.16229 -0.94037,-1.15276 -1.88075,-2.30549 -2.84962,-3.49317 C 733.23793,221.08123 648.35095,181.22783 557.25129,170.1606 c -17.49318,-1.74624 -35.10881,-2.17743 -52.67603,-2.61014 0,-0.67434 0,-1.34866 0,-2.04343 77.58338,-17.91703 171.54695,12.08055 235.10652,55.92926 z"
     fill="#7fbbe4"
     id="path15"
     style="stroke-width:2.04342" />
  <path
     d="m 198.06162,449.543 c 6.00256,4.08684 6.00256,4.08684 10.21712,8.17369 -2.69732,7.41763 -5.39464,14.83526 -8.1737,22.47767 2.06513,-2.73948 4.13028,-5.47893 6.25799,-8.30142 3.93519,-4.5099 3.93519,-4.5099 8.04598,-8.04597 8.09501,-0.53967 11.86071,0.15182 18.26311,5.10855 4.84005,11.38838 3.05729,22.43357 -1.02172,33.84422 -12.07725,27.08996 -37.04724,38.93178 -62.70757,51.02174 -5.61942,1.97957 -5.61942,1.97957 -11.74969,-0.0638 -7.40314,-31.46338 -10.14527,-57.05738 5.61942,-86.33467 9.51395,-11.62816 19.39135,-20.87199 35.24906,-17.87997 z"
     fill="#e9832a"
     id="path19"
     style="stroke-width:2.04342" />
  <path
     d="m 323.60449,257.58883 c 9.65799,7.30238 18.64711,16.44033 21.58367,28.48024 1.33164,13.31641 -1.0664,23.31422 -8.17369,34.7382 -7.10379,7.82556 -15.47553,13.63101 -26.02174,15.06226 -12.3805,0.27264 -21.63404,-0.21561 -31.83272,-7.6309 -9.22322,-8.94566 -15.95709,-20.35911 -16.4751,-33.22959 0.1508,-13.07149 5.04242,-21.49149 14.2481,-30.53961 13.50851,-11.61665 29.80381,-12.09423 46.67148,-6.8806 z"
     fill="#2a5889"
     id="path25"
     style="stroke-width:2.04342" />
  <path
     d="m 379.92638,167.55046 c 6.47285,23.3485 15.17473,65.69144 4.08684,87.86724 -30.2092,-2.56011 -64.61824,-20.80502 -84.16353,-43.93363 -1.22224,-1.68582 -2.44444,-3.37164 -3.70371,-5.10856 17.53716,-13.97027 60.47154,-46.75217 83.7804,-38.82505 z"
     fill="#e87d26"
     id="path26"
     style="stroke-width:2.04342" />
  <path
     d="m 204.1919,333.06781 c -2.12817,13.217 -4.93601,26.1335 -8.30141,39.08049 -2.98841,11.50581 -4.96395,22.64251 -6.00256,34.48279 -3.53116,3.53116 -8.59561,2.47109 -13.40997,2.68199 -21.45992,1.77355 -31.18779,10.34884 -45.84134,25.83015 -1.35131,1.38027 -2.7026,2.76054 -4.09484,4.18264 -0.67434,0 -1.34867,0 -2.04343,0 -0.42105,-11.33796 1.04056,-21.40162 3.576,-32.43936 0.37321,-1.62754 0.74643,-3.25508 1.13096,-4.93194 5.65597,-23.74772 14.4632,-41.74238 35.77839,-55.09364 12.37692,-6.91597 24.84775,-13.79312 39.2082,-13.79312 z"
     fill="#ea7e28"
     id="path27"
     style="stroke-width:2.04342" />
  <path
     d="m 322.7105,396.41396 c 7.02417,13.1118 6.70286,25.60653 6.89656,40.22992 0.0764,2.14811 0.15284,4.29621 0.23148,6.50942 0.22873,20.42112 -6.53496,33.01428 -20.4103,47.76904 -1.59626,1.70689 -3.19253,3.4138 -4.83717,5.17242 -1.43822,1.49617 -2.87643,2.99232 -4.35824,4.53384 -1.77012,1.85441 -3.54023,3.70881 -5.36398,5.61942 -6.18674,5.86111 -12.62843,11.38318 -19.15711,16.85824 -0.67433,-1.34865 -1.34866,-2.69732 -2.04342,-4.08684 0.94827,-2.78161 0.94827,-2.78161 1.91571,-5.61942 4.61973,-15.22919 4.84044,-33.20658 -1.78799,-47.76505 -0.73493,-1.35392 -1.46984,-2.70785 -2.22702,-4.10279 -2.06618,-3.96644 -3.11019,-7.62756 -4.03097,-11.98916 1.33811,-1.04312 2.67625,-2.08622 4.0549,-3.16094 11.09939,-8.84185 21.55421,-17.9657 31.57731,-28.00129 1.51822,-1.51625 1.51822,-1.51625 3.06713,-3.06313 5.91543,-6.00415 11.32411,-12.2331 16.47311,-18.90368 z"
     fill="#ec7d27"
     id="path28"
     style="stroke-width:2.04342" />
  <path
     d="m 310.44995,267.67824 c 10.52517,3.64332 15.52974,8.39316 20.43425,18.39083 1.91297,10.76849 0.19207,19.54603 -6.13028,28.60793 -8.24875,5.89196 -16.09214,7.43916 -26.04567,7.13602 -8.15113,-1.77998 -13.71641,-6.91386 -18.90966,-13.26629 -2.77309,-8.31927 -3.39289,-15.83119 -2.04343,-24.5211 7.37691,-13.50059 17.7969,-18.12835 32.69479,-16.34739 z"
     fill="#6eb6e1"
     id="path32"
     style="stroke-width:2.04342" />
  <path
     d="m 208.27874,455.67327 c -2.69732,8.09196 -5.39464,16.18392 -8.1737,24.52109 2.27587,-2.69732 4.55173,-5.39464 6.89656,-8.1737 3.87932,-4.5977 3.87932,-4.5977 7.40741,-8.17369 1.34867,0 2.69732,0 4.08686,0 4.03905,8.07808 2.91765,17.75973 2.04342,26.56451 -8.89307,18.85329 -26.51939,27.20382 -44.95533,34.73821 -4.21528,-15.2997 -5.56118,-37.86333 1.27714,-52.61818 7.96724,-12.41214 16.05896,-18.39412 31.41764,-16.85824 z"
     fill="#faf9f7"
     id="path33"
     style="stroke-width:2.04342" />
  <path
     d="m 260.7692,364.10232 c 4.72543,1.66028 4.72543,1.66028 6.76885,3.70371 2.02609,25.10904 -20.15526,49.73565 -34.19544,68.98951 -0.93838,1.29235 -1.87678,2.58471 -2.84363,3.91622 -1.84097,2.52463 -3.69637,5.0388 -5.56754,7.54112 -5.2895,7.03177 -5.2895,7.03177 -6.43557,15.59409 -6.21218,6.92214 -13.08063,12.71802 -20.43425,18.39081 6.7838,-21.94762 37.22538,-119.91328 62.70758,-118.13546 z"
     fill="#ec7d28"
     id="path34"
     style="stroke-width:2.04342" />
  <path
     d="m 343.14474,815.31593 c 9.04354,1.81725 17.79479,3.76637 26.43681,7.02427 51.36922,17.18151 111.36124,11.96571 163.60164,1.14942 -19.99932,19.99932 -65.35248,20.95573 -91.69866,21.07281 -2.16227,0.0123 -4.32455,0.0227 -6.55232,0.0343 -19.23677,-0.17737 -35.84223,-4.041 -53.85641,-10.50699 -1.49601,-0.5311 -2.992,-1.06218 -4.53336,-1.60939 -11.58286,-4.20241 -22.61498,-9.13368 -33.3977,-15.12113 0,-0.67434 0,-1.34867 0,-2.04343 z"
     fill="#f4f7f9"
     id="path35"
     style="stroke-width:2.04342" />
  <path
     d="m 202.14848,645.71172 c 4.82444,7.23668 6.90854,14.6441 9.45083,22.8608 5.99073,18.61575 13.89097,35.60729 23.24395,52.7459 1.20378,2.23372 2.40756,4.46743 3.64783,6.76884 6.90825,12.33727 14.64769,23.34279 23.73086,34.17945 3.27268,4.00704 3.27268,4.00704 5.3161,8.09388 -20.67168,-8.73243 -36.81853,-29.90856 -46.99876,-49.04217 -1.11158,-2.03616 -2.22319,-4.07233 -3.36847,-6.17019 -11.14369,-22.04281 -15.51461,-44.79645 -15.02234,-69.43651 z"
     fill="#e7edf2"
     id="path36"
     style="stroke-width:2.04342" />
  <path
     d="m 614.92015,206.37551 c 1.34867,0.67433 2.69732,1.34867 4.08686,2.04343 1.58298,5.70054 2.74894,11.43817 3.93518,17.2334 1.71385,5.62608 1.71385,5.62608 6.96841,7.85441 1.79645,0.48733 3.5929,0.97464 5.4438,1.4767 1.50933,0.42673 3.01869,0.85347 4.57375,1.29311 2.09807,0.49784 2.09807,0.49784 4.23852,1.00575 2.48658,0.59004 4.97318,1.18008 7.53513,1.788 0,0.67432 0,1.34865 0,2.04342 -1.69902,0.32399 -3.398,0.64799 -5.14848,0.9818 -2.22055,0.47678 -4.44109,0.95355 -6.72893,1.44477 -2.20474,0.45043 -4.40949,0.90086 -6.68104,1.36494 -7.35003,2.88295 -8.96807,5.42401 -12.09292,12.55588 -0.71447,4.7631 -1.40085,9.53064 -2.04342,14.30396 -2.023,1.0115 -2.023,1.0115 -4.08686,2.04344 -0.13424,-1.67529 -0.26867,-3.35058 -0.40709,-5.07665 -1.09484,-7.32232 -2.28894,-12.8563 -5.72318,-19.44445 -8.51596,-4.64507 -17.03705,-6.59711 -26.56451,-8.17369 0,-1.34866 0,-2.69732 0,-4.08685 1.69898,-0.25287 3.39799,-0.50575 5.14847,-0.76628 12.59729,-1.84738 12.59729,-1.84738 22.29408,-9.12356 1.5265,-4.22544 2.48613,-8.15824 3.20881,-12.58783 0.66666,-2.72813 1.3437,-5.45383 2.04342,-8.1737 z"
     fill="#e9eff4"
     id="path37"
     style="stroke-width:2.04342" />
  <path
     d="m 506.61868,253.37427 c 4.7659,4.7659 4.67034,6.71997 5.87484,13.15454 1.26966,5.07281 1.26966,5.07281 4.34227,9.32313 7.96629,3.49953 15.92672,4.97103 24.5211,6.13027 -0.67433,1.34866 -1.34867,2.69732 -2.04342,4.08686 -3.60817,0.65601 -7.22948,1.24045 -10.8557,1.78798 -6.21089,1.24882 -6.21089,1.24882 -11.62198,4.34228 -4.42415,7.8331 -6.46913,15.72552 -8.17369,24.52109 -0.67433,0 -1.34866,0 -2.04342,0 -0.20027,-1.40397 -0.4004,-2.80795 -0.60666,-4.25446 -0.30555,-1.84126 -0.6111,-3.68249 -0.92591,-5.57952 -0.42673,-2.73815 -0.42673,-2.73815 -0.86209,-5.53161 -2.0989,-6.28685 -4.13568,-7.98514 -9.86589,-11.19892 -4.72354,-1.43395 -4.72354,-1.43395 -9.57855,-2.17114 -4.87708,-0.83813 -4.87708,-0.83813 -8.81227,-1.9157 -0.67433,-1.34867 -1.34866,-2.69734 -2.04343,-4.08686 1.72271,-0.39512 3.4454,-0.79024 5.22032,-1.19733 2.23898,-0.53208 4.47796,-1.06417 6.7848,-1.61237 2.22846,-0.52155 4.4569,-1.04312 6.75289,-1.58048 5.97576,-1.30905 5.97576,-1.30905 9.84993,-5.82695 1.3824,-4.48949 1.3824,-4.48949 2.29886,-9.45083 0.34244,-1.67003 0.68487,-3.34004 1.03767,-5.06066 0.2476,-1.28019 0.49522,-2.56035 0.75033,-3.87932 z"
     fill="#f1f4f7"
     id="path38"
     style="stroke-width:2.04342" />
  <path
     d="m 723.22164,749.92636 c -12.52071,28.34637 -48.57118,45.49319 -75.22356,57.59901 -1.79464,0.81526 -3.58928,1.63051 -5.43832,2.47046 -9.56551,4.17569 -9.56551,4.17569 -13.33564,5.3201 -1.34865,-0.67433 -2.69732,-1.34867 -4.08684,-2.04342 2.12834,-1.16691 4.25669,-2.33382 6.44956,-3.5361 27.2532,-15.28808 51.39977,-33.67101 73.9065,-55.37199 5.45194,-3.81256 11.17869,-4.43806 17.7283,-4.43806 z"
     fill="#edf2f6"
     id="path39"
     style="stroke-width:2.04342" />
  <path
     d="m 191.93135,412.76136 c 9.44062,4.7203 18.88124,9.44062 28.60794,14.30397 -2.69732,6.7433 -5.39464,13.4866 -8.1737,20.43425 -7.13969,-1.78494 -11.61966,-3.68925 -17.87996,-7.27971 -1.63315,-0.92984 -3.26629,-1.85968 -4.94892,-2.8177 -1.23277,-0.71382 -2.46553,-1.42767 -3.73564,-2.16314 1.81829,-7.57616 3.98321,-14.96296 6.13028,-22.47767 z"
     fill="#5da1d3"
     id="path41"
     style="stroke-width:2.04342" />
  <path
     d="m 232.79983,435.23903 c 9.44063,4.72031 18.88124,9.44061 28.60794,14.30397 -2.02299,0.67432 -4.04598,1.34865 -6.13027,2.04342 -2.3925,5.98548 -2.3925,5.98548 -4.08686,12.26055 -0.67432,1.34865 -1.34865,2.69732 -2.04342,4.08684 -9.86459,-2.8872 -17.81097,-7.00841 -26.56451,-12.26054 1.37484,-8.93645 4.54885,-11.93185 10.21712,-20.43424 z"
     fill="#5ca6d7"
     id="path42"
     style="stroke-width:2.04342" />
  <path
     d="m 596.52934,371.89288 c 1.34866,0 2.69732,0 4.08684,0 0.86474,4.1241 1.72946,8.24819 2.5942,12.37229 1.3355,4.73213 1.3355,4.73213 7.62293,8.06195 4.0658,0.79722 8.15367,1.49584 12.26054,2.04342 0,1.34866 0,2.69732 0,4.08686 -2.23373,0.16857 -4.46744,0.33715 -6.76884,0.51085 -7.42441,0.84647 -7.42441,0.84647 -11.36655,4.98084 -2.74405,5.64057 -3.63678,10.7777 -4.34228,16.98597 -1.34865,-0.67434 -2.69732,-1.34867 -4.08684,-2.04343 -0.37932,-2.61303 -0.75863,-5.22606 -1.14943,-7.91827 -0.76491,-4.49956 -0.76491,-4.49956 -2.93742,-8.42912 -5.87082,-3.29626 -11.8124,-4.83084 -18.39082,-6.13028 0,-0.67432 0,-1.34865 0,-2.04342 6.06897,-1.34866 12.13794,-2.69732 18.39082,-4.08685 1.34866,-6.06897 2.69732,-12.13793 4.08685,-18.39081 z"
     fill="#e4eaef"
     id="path43"
     style="stroke-width:2.04342" />
  <path
     d="m 696.65712,300.37303 c 4.08685,2.04343 4.08685,2.04343 5.32408,5.67528 0.39248,1.45668 0.78497,2.91333 1.18933,4.41412 1.38432,4.47282 1.38432,4.47282 3.70371,8.30141 7.25136,3.29268 7.25136,3.29268 14.30397,4.08686 0,0.67432 0,1.34865 0,2.04342 -2.57087,0.33717 -5.14176,0.67433 -7.79055,1.02172 -5.66383,1.34328 -7.87328,1.9741 -11.00735,6.97636 -1.49316,4.12256 -2.72476,8.1586 -3.67976,12.43616 -0.67433,0 -1.34866,0 -2.04343,0 -0.82184,-3.4138 -0.82184,-3.4138 -1.66028,-6.89656 -1.7279,-7.85371 -1.7279,-7.85371 -8.55684,-11.49426 -4.0658,-0.79722 -8.15367,-1.49584 -12.26054,-2.04342 0,-1.34865 0,-2.69732 0,-4.08685 6.06897,-1.34866 12.13793,-2.69732 18.39081,-4.08685 1.34867,-5.39463 2.69732,-10.78927 4.08685,-16.34739 z"
     fill="#e0e9ef"
     id="path44"
     style="stroke-width:2.04342" />
  <path
     d="m 441.22911,183.89785 c 4.08684,8.1737 4.08684,8.1737 5.36397,12.51597 4.72253,6.4398 11.52829,6.44174 19.15711,7.91827 0,1.34866 0,2.69732 0,4.08685 -2.27586,0.25287 -4.55173,0.50575 -6.89656,0.76628 -7.47084,0.55496 -7.47084,0.55496 -11.49426,5.36399 -1.46977,4.73596 -2.84238,9.50388 -4.08684,14.30397 -3.3681,-6.06257 -4.9915,-11.55815 -6.13028,-18.39081 -9.10345,-2.02299 -9.10345,-2.02299 -18.39082,-4.08686 0,-0.67432 0,-1.34865 0,-2.04342 2.57088,-0.33717 5.14177,-0.67432 7.79056,-1.02171 5.66381,-1.34329 7.87328,-1.97411 11.00735,-6.97637 1.49316,-4.12255 2.72476,-8.1586 3.67977,-12.43616 z"
     fill="#e1eaf1"
     id="path46"
     style="stroke-width:2.04342" />
  <path
     d="m 565.87797,114.42142 c 4.08686,8.1737 4.08686,8.1737 5.61942,12.51599 3.77323,5.65985 8.42933,6.25249 14.81483,7.91826 -6.13028,4.08685 -6.13028,4.08685 -10.34484,5.49171 -6.21423,4.20963 -6.4791,9.93498 -8.04598,16.98595 -4.08685,-4.08684 -4.08685,-4.08684 -4.34228,-9.06769 -1.20635,-5.47227 -1.20635,-5.47227 -5.54756,-7.26374 -4.16405,-1.53681 -8.31458,-2.90552 -12.58783,-4.10281 4.76556,-2.46494 9.1881,-4.42497 14.30397,-6.13027 2.07928,-3.81163 2.07928,-3.81163 3.44828,-8.30141 0.51366,-1.49881 1.02729,-2.9976 1.55651,-4.54184 0.37142,-1.15635 0.74282,-2.31272 1.12548,-3.50415 z"
     fill="#dce8f2"
     id="path48"
     style="stroke-width:2.04342" />
  <path
     d="M 198.06162,482.23778 C 0,0 0,0 198.06162,482.23778 Z"
     fill="#e7832b"
     id="path49"
     style="stroke-width:2.04342"
     sodipodi:nodetypes="cc" />
  <path
     d="m 300.23283,721.31842 c 1.34866,0.67432 2.69733,1.34865 4.08685,2.04342 1.27714,6.25798 1.27714,6.25798 2.04342,12.26055 4.72031,1.34865 9.44062,2.69732 14.30397,4.08684 -1.22223,0.59003 -2.44444,1.18008 -3.70371,1.788 -8.59421,4.39592 -8.59421,4.39592 -13.02682,12.7714 -0.54791,1.9387 -1.09579,3.8774 -1.66028,5.87484 -0.67434,0 -1.34867,0 -2.04343,0 -0.37932,-2.27586 -0.75862,-4.55173 -1.14942,-6.89656 -0.96937,-2.44444 -1.9387,-4.88889 -2.93743,-7.40741 -7.18061,-3.14862 -7.18061,-3.14862 -14.30396,-4.08685 5.35256,-3.56836 8.25186,-4.8781 14.30396,-6.13026 1.34866,-4.72031 2.69732,-9.44063 4.08685,-14.30397 z"
     fill="#e4ecf2"
     id="path50"
     style="stroke-width:2.04342" />
  <path
     d="m 394.23035,760.14347 c 4.08684,4.08685 4.08684,4.08685 5.61941,9.19541 2.19286,5.77243 2.19286,5.77243 8.93999,7.79056 1.93868,0.46358 3.87738,0.9272 5.87484,1.40485 -1.22224,0.59004 -2.44446,1.18007 -3.70371,1.78799 -7.58444,3.90057 -11.31764,6.78372 -14.68711,14.5594 -1.09579,-1.60153 -2.19157,-3.20307 -3.32056,-4.85313 -5.47114,-6.04703 -9.31665,-7.50157 -17.11369,-9.45084 4.76556,-2.46494 9.1881,-4.42497 14.30397,-6.13027 2.5128,-7.17632 2.5128,-7.17632 4.08686,-14.30397 z"
     fill="#dbe6ed"
     id="path51"
     style="stroke-width:2.04342" />
  <path
     d="m 198.06162,449.543 c 3.95914,3.06513 3.95914,3.06513 6.13028,6.13027 -6.13028,2.04342 -12.26055,4.08684 -18.39083,6.13028 -3.06513,-2.80972 -3.06513,-2.80972 -6.13027,-6.13028 0,-1.34866 0,-2.69732 0,-4.08685 6.23212,-3.11606 11.5297,-2.52492 18.39082,-2.04342 z"
     fill="#e3893a"
     id="path56"
     style="stroke-width:2.04342" />
  <path
     d="m 208.27874,455.67327 c 3.37166,2.69732 6.7433,5.39464 10.21713,8.1737 -6.4767,6.66174 -13.07666,12.71496 -20.43425,18.39081 0.92866,-2.89738 1.86719,-5.79163 2.80971,-8.68455 0.78232,-2.41811 0.78232,-2.41811 1.58046,-4.88508 1.64149,-4.54794 3.57331,-8.72274 5.82695,-12.99488 z"
     fill="#ed8d39"
     id="path57"
     style="stroke-width:2.04342" />
  <path
     d="m 196.0182,441.3693 c 9.70627,3.83142 9.70627,3.83142 14.30397,6.13028 -0.67434,2.69732 -1.34866,5.39463 -2.04343,8.17369 -6.06897,-2.02299 -12.13793,-4.04598 -18.39081,-6.13027 2.02299,-2.69732 4.04597,-5.39464 6.13027,-8.1737 z"
     fill="#395c8e"
     id="path59"
     style="stroke-width:2.04342" />
  <path
     d="m 218.49587,463.84697 c 5.05746,1.01149 5.05746,1.01149 10.21711,2.04342 1.34867,2.02299 2.69732,4.04598 4.08685,6.13027 -0.88506,0.84291 -1.77011,1.68582 -2.682,2.55429 -4.13351,4.13942 -4.13351,4.13942 -9.57854,11.74968 -0.67433,-7.41763 -1.34866,-14.83526 -2.04342,-22.47766 z"
     fill="#eb984d"
     id="path60"
     style="stroke-width:2.04342" />
  <path
     d="m 314.53681,482.23778 c 1.52457,3.54406 1.52457,3.54406 2.04342,8.1737 -3.37644,4.37419 -3.37644,4.37419 -8.04599,8.68455 -1.53567,1.4435 -3.07136,2.88697 -4.65356,4.3742 -1.20381,1.08526 -2.40759,2.1705 -3.64785,3.28864 -1.34866,-0.67432 -2.69732,-1.34866 -4.08685,-2.04342 0.98516,-1.10895 1.97031,-2.21792 2.98532,-3.36048 1.29072,-1.46192 2.58142,-2.92385 3.91124,-4.43008 1.92026,-2.16917 1.92026,-2.16917 3.87932,-4.38218 3.81539,-4.35456 3.81539,-4.35456 7.61495,-10.30493 z"
     fill="#31547d"
     id="path68"
     style="stroke-width:2.04342" />
  <path
     d="m 220.53929,453.62984 c 5.05748,2.02299 5.05748,2.02299 10.21712,4.08685 0,2.02299 0,4.04599 0,6.13028 -6.13027,2.04342 -6.13027,2.04342 -10.60026,0.12771 -1.22224,-0.71647 -2.44445,-1.43296 -3.7037,-2.17113 1.34865,-2.69734 2.69731,-5.39465 4.08684,-8.17371 z"
     fill="#435979"
     id="path75"
     style="stroke-width:2.04342" />
  <path
     d="m 189.88793,339.19809 c -5.39464,3.37164 -10.78928,6.7433 -16.3474,10.21713 -2.02298,-1.34867 -4.04598,-2.69734 -6.13027,-4.08686 2.58326,-1.42968 5.18345,-2.82882 7.79055,-4.21456 1.44614,-0.78233 2.89225,-1.56466 4.38219,-2.3707 4.17465,-1.58843 4.17465,-1.58843 10.30493,0.45499 z"
     fill="#dc7d36"
     id="path80"
     style="stroke-width:2.04342" />
  <path
     d="m 310.44995,196.1584 c 0.67433,1.34865 1.34866,2.69732 2.04342,4.08684 -2.69732,2.69732 -5.39463,5.39464 -8.17369,8.1737 -2.02299,-0.67433 -4.04599,-1.34866 -6.13028,-2.04343 7.66285,-7.91826 7.66285,-7.91826 12.26055,-10.21711 z"
     fill="#dd7228"
     id="path87"
     style="stroke-width:2.04342" />
  <path
     d="m 326.79734,185.94127 c 0.67434,1.34867 1.34867,2.69732 2.04344,4.08685 -2.84438,5.68873 -6.44857,6.08734 -12.26055,8.1737 -1.34867,-1.34867 -2.69732,-2.69732 -4.08686,-4.08685 4.72032,-2.69732 9.44063,-5.39464 14.30397,-8.1737 z"
     fill="#e17c30"
     id="path88"
     style="stroke-width:2.04342" />
</svg>
